<svg width="60" height="60" viewBox="0 0 60 60" fill="none" xmlns="http://www.w3.org/2000/svg">
<path d="M49.2367 53.8174H10.7609L8.92871 59.3131H51.0688L49.2367 53.8174Z" fill="#A3D4FF"/>
<path d="M41.9079 53.8174H10.7609L8.92871 59.3131H42.824L41.9079 53.8174Z" fill="white"/>
<path d="M51.0681 60.0001H8.92801C8.70815 60.0001 8.49745 59.8902 8.3692 59.7161C8.24094 59.5329 8.2043 59.3039 8.27759 59.0933L10.1098 53.5975C10.2014 53.3136 10.467 53.1304 10.7602 53.1304H49.236C49.5291 53.1304 49.7948 53.3227 49.8864 53.5975L51.7186 59.0933C51.7919 59.3039 51.7552 59.5329 51.627 59.7161C51.4987 59.8993 51.288 60.0001 51.0681 60.0001ZM9.88074 58.6261H50.1154L48.7413 54.5043H11.2549L9.88074 58.6261Z" fill="#2B5185"/>
<path d="M42.8235 48.3125H17.173L15.3408 53.8083H44.6557L42.8235 48.3125Z" fill="#A3D4FF"/>
<path d="M35.4948 48.3125H17.173L15.3408 53.8083H36.4109L35.4948 48.3125Z" fill="white"/>
<path d="M44.656 54.4952H15.3411C15.1212 54.4952 14.9105 54.3853 14.7823 54.2112C14.654 54.028 14.6174 53.7991 14.6907 53.5884L16.5229 48.0926C16.6145 47.8087 16.8801 47.6255 17.1733 47.6255H42.8238C43.1169 47.6255 43.3826 47.8178 43.4742 48.0926L45.3064 53.5884C45.3797 53.7991 45.343 54.028 45.2148 54.2112C45.0865 54.3944 44.8758 54.4952 44.656 54.4952ZM16.2938 53.1212H43.7032L42.3291 48.9994H17.668L16.2938 53.1212Z" fill="#2B5185"/>
<path d="M49.2365 8.01005L29.9986 0.682373L10.7607 8.01005H49.2365Z" fill="#A3D4FF"/>
<path d="M33.663 8.01005L29.9986 0.682373L10.7607 8.01005H49.2365H33.663Z" fill="white"/>
<path d="M49.2367 8.69704H10.761C10.4312 8.69704 10.1472 8.45889 10.0831 8.1383C10.0189 7.80856 10.2021 7.48797 10.5136 7.3689L29.7515 0.0412182C29.9072 -0.0137394 30.0813 -0.0137394 30.237 0.0412182L49.4749 7.3689C49.7864 7.48797 49.9696 7.80856 49.9055 8.1383C49.8414 8.46805 49.5574 8.69704 49.2276 8.69704H49.2367ZM14.4986 7.3231H45.4991L29.9988 1.41516L14.4986 7.3231Z" fill="#2B5185"/>
<path d="M29.9986 8.00977L22.6699 48.312H37.3274L29.9986 8.00977Z" fill="#A3D4FF"/>
<path d="M29.9986 8.00977L22.6699 48.312H30.9147L29.9986 8.00977Z" fill="white"/>
<path d="M37.327 48.9992H22.6695C22.468 48.9992 22.2756 48.9076 22.1382 48.7519C22.0099 48.5961 21.955 48.3855 21.9916 48.1931L29.3203 7.89089C29.3753 7.56115 29.6684 7.323 29.9982 7.323C30.328 7.323 30.612 7.56115 30.6761 7.89089L38.0049 48.1931C38.0415 48.3946 37.9865 48.5961 37.8583 48.7519C37.73 48.9076 37.5377 48.9992 37.327 48.9992ZM23.494 47.6252H36.5025L29.9982 11.8478L23.494 47.6252Z" fill="#2B5185"/>
<path d="M57.4811 32.5212H40.9915C40.7716 32.5212 40.5609 32.4113 40.4327 32.2281C40.3044 32.0449 40.2678 31.8159 40.3411 31.6052L48.5859 7.79026C48.6775 7.51547 48.9431 7.33228 49.2363 7.33228C49.5294 7.33228 49.7859 7.51547 49.8867 7.79026L58.1315 31.6052C58.2048 31.8159 58.1682 32.0449 58.0399 32.2281C57.9117 32.4113 57.701 32.5212 57.4811 32.5212ZM41.9534 31.1472H56.51L49.2271 10.1168L41.9442 31.1472H41.9534Z" fill="#2B5185"/>
<path d="M55.6488 37.33H42.8235L39.1592 31.8342H59.3132L55.6488 37.33Z" fill="#A3D4FF"/>
<path d="M50.1523 37.33H42.8235L39.1592 31.8342H52.9005L50.1523 37.33Z" fill="white"/>
<path d="M55.6488 38.0169H42.8235C42.5945 38.0169 42.3838 37.907 42.2556 37.7147L38.5912 32.2189C38.4538 32.0082 38.4355 31.7334 38.5546 31.5136C38.6736 31.2938 38.9027 31.1472 39.1592 31.1472H59.3132C59.5697 31.1472 59.7987 31.2846 59.9178 31.5136C60.0369 31.7334 60.0277 32.0082 59.8811 32.2189L56.2168 37.7147C56.0885 37.907 55.8778 38.0169 55.6488 38.0169ZM43.19 36.643H55.2824L58.0306 32.5212H40.4417L43.19 36.643Z" fill="#2B5185"/>
<path d="M19.0055 32.5212H2.5159C2.29604 32.5212 2.08534 32.4113 1.95709 32.2281C1.82883 32.0449 1.79219 31.8159 1.86548 31.6052L10.1103 7.79026C10.2019 7.51547 10.4676 7.33228 10.7607 7.33228C11.0539 7.33228 11.3104 7.51547 11.4111 7.79026L19.6559 31.6052C19.7292 31.8159 19.6926 32.0449 19.5643 32.2281C19.4361 32.4113 19.2254 32.5212 19.0055 32.5212ZM3.4778 31.1472H18.0345L10.7607 10.1168L3.4778 31.1472Z" fill="#2B5185"/>
<path d="M17.1732 37.33H4.34795L0.683594 31.8342H20.8376L17.1732 37.33Z" fill="#A3D4FF"/>
<path d="M11.6767 37.33H4.34795L0.683594 31.8342H14.4249L11.6767 37.33Z" fill="white"/>
<path d="M17.1732 38.017H4.34795C4.11893 38.017 3.90823 37.9071 3.77997 37.7148L0.115613 32.2099C-0.0218008 31.9992 -0.0401226 31.7244 0.0789691 31.5046C0.198061 31.2847 0.427083 31.1382 0.683588 31.1382H20.8376C21.0941 31.1382 21.3231 31.2756 21.4422 31.5046C21.5613 31.7244 21.5521 31.9992 21.4055 32.2099L17.7412 37.7056C17.6129 37.898 17.4022 38.0079 17.1732 38.0079V38.017ZM4.71438 36.6431H16.8068L19.555 32.5213H1.96611L4.71438 36.6431Z" fill="#2B5185"/>
<path d="M59.3129 51.7472C59.1389 51.7472 58.9648 51.6831 58.8274 51.5457L56.0791 48.7978C55.8135 48.5322 55.8135 48.0925 56.0791 47.8269C56.3448 47.5613 56.7845 47.5613 57.0502 47.8269L59.7985 50.5748C60.0641 50.8404 60.0641 51.2801 59.7985 51.5457C59.661 51.6831 59.487 51.7472 59.3129 51.7472Z" fill="#2B5185"/>
<path d="M56.5647 51.7472C56.3906 51.7472 56.2165 51.6831 56.0791 51.5457C55.8135 51.2801 55.8135 50.8404 56.0791 50.5748L58.8274 47.8269C59.0931 47.5613 59.5328 47.5613 59.7985 47.8269C60.0641 48.0925 60.0641 48.5322 59.7985 48.7978L57.0502 51.5457C56.9128 51.6831 56.7387 51.7472 56.5647 51.7472Z" fill="#2B5185"/>
<path d="M49.2368 45.3356C49.0627 45.3356 48.8886 45.2715 48.7512 45.1341L46.003 42.3862C45.7373 42.1206 45.7373 41.6809 46.003 41.4153C46.2686 41.1497 46.7083 41.1497 46.974 41.4153L49.7223 44.1632C49.9879 44.4288 49.9879 44.8685 49.7223 45.1341C49.5849 45.2715 49.4108 45.3356 49.2368 45.3356Z" fill="#2B5185"/>
<path d="M46.4885 45.3356C46.3144 45.3356 46.1404 45.2715 46.003 45.1341C45.7373 44.8685 45.7373 44.4288 46.003 44.1632L48.7512 41.4153C49.0169 41.1497 49.4566 41.1497 49.7223 41.4153C49.9879 41.6809 49.9879 42.1206 49.7223 42.3862L46.974 45.1341C46.8366 45.2715 46.6625 45.3356 46.4885 45.3356Z" fill="#2B5185"/>
<path d="M41.9077 14.193C41.7336 14.193 41.5595 14.1289 41.4221 13.9915L38.6739 11.2436C38.4082 10.978 38.4082 10.5383 38.6739 10.2727C38.9395 10.0071 39.3792 10.0071 39.6449 10.2727L42.3932 13.0206C42.6588 13.2862 42.6588 13.7259 42.3932 13.9915C42.2558 14.1289 42.0817 14.193 41.9077 14.193Z" fill="#2B5185"/>
<path d="M39.1594 14.193C38.9853 14.193 38.8113 14.1289 38.6739 13.9915C38.4082 13.7259 38.4082 13.2862 38.6739 13.0206L41.4221 10.2727C41.6878 10.0071 42.1275 10.0071 42.3932 10.2727C42.6588 10.5383 42.6588 10.978 42.3932 11.2436L39.6449 13.9915C39.5075 14.1289 39.3334 14.193 39.1594 14.193Z" fill="#2B5185"/>
<path d="M22.6694 21.5207C22.4953 21.5207 22.3213 21.4565 22.1838 21.3191L19.4356 18.5713C19.1699 18.3056 19.1699 17.866 19.4356 17.6003C19.7012 17.3347 20.141 17.3347 20.4066 17.6003L23.1549 20.3482C23.4206 20.6139 23.4206 21.0535 23.1549 21.3191C23.0175 21.4565 22.8434 21.5207 22.6694 21.5207Z" fill="#2B5185"/>
<path d="M19.9211 21.5207C19.747 21.5207 19.573 21.4565 19.4356 21.3191C19.1699 21.0535 19.1699 20.6139 19.4356 20.3482L22.1838 17.6003C22.4495 17.3347 22.8892 17.3347 23.1549 17.6003C23.4206 17.866 23.4206 18.3056 23.1549 18.5713L20.4066 21.3191C20.2692 21.4565 20.0952 21.5207 19.9211 21.5207Z" fill="#2B5185"/>
<path d="M6.17133 5.94912C5.99727 5.94912 5.82321 5.885 5.6858 5.74761L2.93753 2.99973C2.67186 2.7341 2.67186 2.29444 2.93753 2.02881C3.2032 1.76318 3.64292 1.76318 3.90859 2.02881L6.65686 4.77669C6.92252 5.04232 6.92252 5.48198 6.65686 5.74761C6.51944 5.885 6.34538 5.94912 6.17133 5.94912Z" fill="#2B5185"/>
<path d="M3.42306 5.94912C3.249 5.94912 3.07494 5.885 2.93753 5.74761C2.67186 5.48198 2.67186 5.04232 2.93753 4.77669L5.6858 2.02881C5.95147 1.76318 6.39119 1.76318 6.65686 2.02881C6.92252 2.29444 6.92252 2.7341 6.65686 2.99973L3.90859 5.74761C3.77117 5.885 3.59712 5.94912 3.42306 5.94912Z" fill="#2B5185"/>
</svg>
