<svg width="120" height="120" viewBox="0 0 120 120" fill="none" xmlns="http://www.w3.org/2000/svg">
<path d="M57.5353 106.685C56.9209 106.685 56.4114 106.143 56.4114 105.49C56.4114 104.838 56.9209 104.296 57.5353 104.296C80.8828 104.296 99.8696 84.1236 99.8696 59.3177C99.8696 34.5119 80.8828 14.3392 57.5353 14.3392C34.1877 14.3392 15.201 34.5278 15.201 59.3177C15.201 59.9705 14.6915 60.5119 14.077 60.5119C13.4626 60.5119 12.9531 59.9705 12.9531 59.3177C12.9531 33.2063 32.9589 11.9509 57.5353 11.9509C82.1117 11.9509 102.117 33.2063 102.117 59.3177C102.117 85.4292 82.1117 106.685 57.5353 106.685Z" fill="white"/>
<path d="M62.0275 111.477H53.0361C49.1099 111.477 45.918 108.085 45.918 103.914C45.918 99.7425 49.1099 96.3512 53.0361 96.3512H62.0275C65.9537 96.3512 69.1456 99.7425 69.1456 103.914C69.1456 108.085 65.9537 111.477 62.0275 111.477Z" fill="#A3D4FF"/>
<path d="M18.296 79.6616C11.0729 79.6616 5.18359 73.4203 5.18359 65.7302V56.1772C5.18359 48.503 11.0729 42.2458 18.296 42.2458C20.5738 42.2458 22.417 44.2041 22.417 46.6242V75.2831C22.417 77.7032 20.5738 79.6616 18.296 79.6616Z" fill="#A3D4FF"/>
<path d="M13.7958 70.1086C13.1814 70.1086 12.6719 69.5673 12.6719 68.9145V52.9929C12.6719 52.3401 13.1814 51.7988 13.7958 51.7988C14.4102 51.7988 14.9197 52.3401 14.9197 52.9929V68.9145C14.9197 69.5673 14.4102 70.1086 13.7958 70.1086Z" fill="#132A4A"/>
<path d="M96.7695 79.6616C94.4917 79.6616 92.6484 77.7032 92.6484 75.2831V46.6242C92.6484 44.2041 94.4917 42.2458 96.7695 42.2458C103.993 42.2458 109.882 48.503 109.882 56.1772V65.7302C109.882 73.4203 103.993 79.6616 96.7695 79.6616Z" fill="#A3D4FF"/>
<path d="M85.0062 29.9104C83.9871 29.9104 82.9681 29.5283 82.1139 28.7641C75.2805 22.5387 66.5439 19.1156 57.5226 19.1156C48.5012 19.1156 39.7796 22.5387 32.9312 28.7641C31.1629 30.3722 28.5854 30.2766 26.952 28.5412L25.2136 26.6943C24.3445 25.7708 23.8799 24.4971 23.9249 23.2074C23.9698 21.9178 24.5093 20.7077 25.4234 19.8798C34.3548 11.6802 45.7439 7.17438 57.5376 7.17438C69.3312 7.17438 80.7203 11.6802 89.6367 19.8639C90.5508 20.6918 91.0903 21.9178 91.1353 23.1915C91.1802 24.4971 90.7007 25.7708 89.8465 26.6784L88.1082 28.5253C87.254 29.4328 86.1451 29.8945 85.0211 29.8945L85.0062 29.9104Z" fill="#A3D4FF"/>
<path d="M35.5949 83.419C35.3368 83.419 35.0917 83.3121 34.9111 83.125C34.6789 82.8846 34.5886 82.5506 34.6531 82.2166L36.9882 70.139C35.4271 66.8524 34.6402 63.3387 34.6402 59.7047C34.6402 46.6251 44.9094 35.9904 57.5395 35.9904C70.1696 35.9904 80.4388 46.6251 80.4388 59.7047C80.4388 72.7843 70.1696 83.419 57.5395 83.419C54.0175 83.419 50.6374 82.604 47.4638 80.9874L35.8013 83.4056C35.8013 83.4056 35.6723 83.4323 35.6078 83.4323L35.5949 83.419ZM47.5799 78.93C47.7347 78.93 47.8766 78.97 48.0185 79.0368C50.9987 80.6133 54.1981 81.415 57.5137 81.415C69.073 81.415 78.4778 71.6754 78.4778 59.7047C78.4778 47.734 69.073 37.9944 57.5137 37.9944C45.9544 37.9944 36.5495 47.734 36.5495 59.7047C36.5495 63.1383 37.3236 66.4516 38.8459 69.5378C38.9491 69.7382 38.9749 69.9653 38.9362 70.1924L36.8205 81.1344L47.3864 78.9433C47.3864 78.9433 47.5154 78.93 47.5799 78.93Z" fill="white"/>
<path d="M54.9423 70.3312H43.7701C43.2466 70.3312 42.8125 69.8647 42.8125 69.3021V68.0947C42.8125 64.2117 45.7492 61.0697 49.3498 61.0697C51.9035 61.0697 53.9719 58.8332 53.9719 56.1028C53.9719 54.8131 53.4867 53.5645 52.593 52.6178C51.6992 51.6573 50.55 51.1359 49.3498 51.1359C46.7962 51.1359 44.7277 53.3587 44.7277 56.1028C44.7277 56.6654 44.2936 57.1319 43.7701 57.1319C43.2466 57.1319 42.8125 56.6654 42.8125 56.1028C42.8125 52.2199 45.7492 49.0778 49.3498 49.0778C51.0608 49.0778 52.6951 49.8187 53.9464 51.1634C55.1977 52.508 55.8872 54.2642 55.8872 56.1165C55.8872 59.9995 52.9505 63.1415 49.3498 63.1415C46.7962 63.1415 44.7277 65.378 44.7277 68.1084V68.2868H54.9423C55.4658 68.2868 55.8999 68.7533 55.8999 69.3158C55.8999 69.8784 55.4658 70.3449 54.9423 70.3449V70.3312Z" fill="white"/>
<path d="M69.8023 70.3449C69.3552 70.3449 68.9844 69.8595 68.9844 69.2741V51.7845C68.9844 51.1992 69.3552 50.7137 69.8023 50.7137C70.2495 50.7137 70.6203 51.1992 70.6203 51.7845V69.2741C70.6203 69.8595 70.2495 70.3449 69.8023 70.3449Z" fill="white"/>
<path d="M71.3017 62.1652H60.1295C59.606 62.1652 59.1719 61.7311 59.1719 61.2076V50.0354C59.1719 49.5119 59.606 49.0778 60.1295 49.0778C60.653 49.0778 61.0871 49.5119 61.0871 50.0354V60.25H71.3017C71.8252 60.25 72.2593 60.6841 72.2593 61.2076C72.2593 61.7311 71.8252 62.1652 71.3017 62.1652Z" fill="white"/>
<path d="M115.637 33.2958C113.359 33.2958 111.516 31.3375 111.516 28.9174C111.516 26.4973 113.359 24.5389 115.637 24.5389C117.914 24.5389 119.758 26.4973 119.758 28.9174C119.758 31.3375 117.914 33.2958 115.637 33.2958ZM115.637 26.9272C114.603 26.9272 113.763 27.8188 113.763 28.9174C113.763 30.016 114.603 30.9076 115.637 30.9076C116.671 30.9076 117.51 30.016 117.51 28.9174C117.51 27.8188 116.671 26.9272 115.637 26.9272Z" fill="white"/>
<path d="M92.7382 120C90.4604 120 88.6172 118.042 88.6172 115.622C88.6172 113.201 90.4604 111.243 92.7382 111.243C95.016 111.243 96.8593 113.201 96.8593 115.622C96.8593 118.042 95.016 120 92.7382 120ZM92.7382 113.631C91.7042 113.631 90.865 114.523 90.865 115.622C90.865 116.72 91.7042 117.612 92.7382 117.612C93.7722 117.612 94.6114 116.72 94.6114 115.622C94.6114 114.523 93.7722 113.631 92.7382 113.631Z" fill="white"/>
<path d="M22.3945 110.184C20.1167 110.184 18.2734 108.226 18.2734 105.806C18.2734 103.386 20.1167 101.428 22.3945 101.428C24.6723 101.428 26.5155 103.386 26.5155 105.806C26.5155 108.226 24.6723 110.184 22.3945 110.184ZM22.3945 103.816C21.3605 103.816 20.5213 104.707 20.5213 105.806C20.5213 106.905 21.3605 107.796 22.3945 107.796C23.4285 107.796 24.2677 106.905 24.2677 105.806C24.2677 104.707 23.4285 103.816 22.3945 103.816Z" fill="white"/>
<path d="M4.12104 14.1203C1.84323 14.1203 0 12.1619 0 9.74185C0 7.32176 1.84323 5.3634 4.12104 5.3634C6.39885 5.3634 8.24208 7.32176 8.24208 9.74185C8.24208 12.1619 6.39885 14.1203 4.12104 14.1203ZM4.12104 7.75165C3.08703 7.75165 2.24784 8.64326 2.24784 9.74185C2.24784 10.8404 3.08703 11.732 4.12104 11.732C5.15505 11.732 5.99424 10.8404 5.99424 9.74185C5.99424 8.64326 5.15505 7.75165 4.12104 7.75165Z" fill="white"/>
<path d="M100.918 8.75689C98.6401 8.75689 96.7969 6.79853 96.7969 4.37844C96.7969 1.95836 98.6401 0 100.918 0C103.196 0 105.039 1.95836 105.039 4.37844C105.039 6.79853 103.196 8.75689 100.918 8.75689ZM100.918 2.38824C99.8839 2.38824 99.0447 3.27985 99.0447 4.37844C99.0447 5.47704 99.8839 6.36865 100.918 6.36865C101.952 6.36865 102.791 5.47704 102.791 4.37844C102.791 3.27985 101.952 2.38824 100.918 2.38824Z" fill="white"/>
<path d="M101.268 70.1086C100.654 70.1086 100.145 69.5673 100.145 68.9145V52.9929C100.145 52.3401 100.654 51.7988 101.268 51.7988C101.883 51.7988 102.392 52.3401 102.392 52.9929V68.9145C102.392 69.5673 101.883 70.1086 101.268 70.1086Z" fill="#132A4A"/>
</svg>
