<svg width="60" height="61" viewBox="0 0 60 61" fill="none" xmlns="http://www.w3.org/2000/svg">
<g clip-path="url(#clip0_2522_892)">
<path d="M51.9852 0.697998H8.01574C3.96847 0.697998 0.6875 4.03188 0.6875 8.14444V52.8231C0.6875 56.9356 3.96847 60.2695 8.01574 60.2695H51.9852C56.0325 60.2695 59.3135 56.9356 59.3135 52.8231V8.14444C59.3135 4.03188 56.0325 0.697998 51.9852 0.697998Z" fill="#A3D4FF"/>
<path d="M4.35162 8.14453H48.3211C50.3455 8.14453 51.9852 9.81067 51.9852 11.8678V60.2696H8.01574C3.96689 60.2696 0.6875 56.9373 0.6875 52.8232V11.8678C0.6875 9.81067 2.32719 8.14453 4.35162 8.14453Z" fill="white"/>
<path d="M51.9847 60.9677H8.01527C3.59084 60.9677 0 57.319 0 52.8232V8.14455C0 3.64876 3.59084 0 8.01527 0H51.9847C56.4092 0 60 3.64876 60 8.14455V52.8232C60 57.319 56.4092 60.9677 51.9847 60.9677ZM8.01527 1.39621C4.35114 1.39621 1.37405 4.42132 1.37405 8.14455V52.8232C1.37405 56.5464 4.35114 59.5715 8.01527 59.5715H51.9847C55.6489 59.5715 58.626 56.5464 58.626 52.8232V8.14455C58.626 4.42132 55.6489 1.39621 51.9847 1.39621H8.01527Z" fill="#2B5185"/>
<path d="M28.168 49.1001H44.6566C46.1772 49.1001 47.4047 50.3474 47.4047 51.8925V54.6849H25.4199V51.8925C25.4199 50.3474 26.6474 49.1001 28.168 49.1001Z" fill="#A3D4FF"/>
<path d="M28.168 49.1001H39.1604C40.681 49.1001 41.9085 50.3474 41.9085 51.8925V54.6849H25.4199V51.8925C25.4199 50.3474 26.6474 49.1001 28.168 49.1001Z" fill="white"/>
<path d="M47.4042 55.3829H25.4194C25.0439 55.3829 24.7324 55.0664 24.7324 54.6848V51.8924C24.7324 49.9656 26.2714 48.4019 28.1675 48.4019H44.6561C46.5523 48.4019 48.0912 49.9656 48.0912 51.8924V54.6848C48.0912 55.0664 47.7798 55.3829 47.4042 55.3829ZM26.1065 53.9867H46.7172V51.8924C46.7172 50.7382 45.792 49.7981 44.6561 49.7981H28.1675C27.0317 49.7981 26.1065 50.7382 26.1065 51.8924V53.9867Z" fill="#2B5185"/>
<path d="M23.5879 54.6848H49.2368C50.7574 54.6848 51.9849 55.9321 51.9849 57.4772V60.2696H20.8398V57.4772C20.8398 55.9321 22.0673 54.6848 23.5879 54.6848Z" fill="#A3D4FF"/>
<path d="M23.5879 54.6848H43.7406C45.2612 54.6848 46.4887 55.9321 46.4887 57.4772V60.2696H20.8398V57.4772C20.8398 55.9321 22.0673 54.6848 23.5879 54.6848Z" fill="white"/>
<path d="M51.9844 60.9679H20.8394C20.4638 60.9679 20.1523 60.6514 20.1523 60.2698V57.4773C20.1523 55.5506 21.6913 53.9868 23.5875 53.9868H49.2363C51.1325 53.9868 52.6714 55.5506 52.6714 57.4773V60.2698C52.6714 60.6514 52.36 60.9679 51.9844 60.9679ZM21.5264 59.5716H51.2974V57.4773C51.2974 56.3231 50.3722 55.383 49.2363 55.383H23.5875C22.4516 55.383 21.5264 56.3231 21.5264 57.4773V59.5716Z" fill="#2B5185"/>
<path d="M49.3194 24.443L35.066 38.9263C34.7087 39.2893 34.1316 39.2893 33.7744 38.9263L31.182 36.2921C30.8247 35.9291 30.8247 35.3427 31.182 34.9797L45.4354 20.4964C45.7927 20.1334 46.3698 20.1334 46.727 20.4964L49.3194 23.1306C49.6767 23.4936 49.6767 24.08 49.3194 24.443Z" fill="#A3D4FF"/>
<path d="M45.4263 25.7555L33.124 38.2562L31.182 36.2829C30.8247 35.9199 30.8247 35.3335 31.182 34.9704L43.4935 22.4697L45.4354 24.443C45.7927 24.806 45.7927 25.3925 45.4354 25.7555H45.4263Z" fill="white"/>
<path d="M34.4151 39.8943C33.9846 39.8943 33.5816 39.7268 33.2793 39.4196L30.6869 36.7854C30.3846 36.4783 30.2197 36.0687 30.2197 35.6312C30.2197 35.1938 30.3846 34.7842 30.6869 34.477L44.9403 19.9937C45.5449 19.3794 46.5984 19.3794 47.2029 19.9937L49.7953 22.6279C50.0976 22.9351 50.2625 23.3446 50.2625 23.7821C50.2625 24.2196 50.0976 24.6291 49.7953 24.9363L35.5419 39.4196C35.2396 39.7268 34.8365 39.8943 34.406 39.8943H34.4151ZM46.0762 20.9245C46.0213 20.9245 45.9571 20.9431 45.9113 20.9897L31.6579 35.473C31.6029 35.5288 31.5938 35.6033 31.5938 35.6405C31.5938 35.6778 31.5938 35.7429 31.6579 35.7988L34.2503 38.433C34.3052 38.4981 34.4151 38.4981 34.4151 38.4981C34.4518 38.4981 34.5159 38.4981 34.58 38.433L48.8335 23.9496C48.9251 23.8565 48.9251 23.7076 48.8335 23.6238L46.2411 20.9897C46.2411 20.9897 46.1403 20.9245 46.0762 20.9245Z" fill="#2B5185"/>
<path d="M32.4775 9.96211L20.8184 21.8093L32.4775 33.6565L44.1367 21.8093L32.4775 9.96211Z" fill="#A3D4FF"/>
<path d="M20.8076 21.8071L29.8759 12.5926L38.9441 21.8071C39.3003 22.1691 39.3003 22.7615 38.9441 23.1235L30.5236 31.6798L20.8076 21.8071Z" fill="white"/>
<path d="M32.4731 34.3561C32.2899 34.3561 32.1158 34.2816 31.9876 34.1513L20.3265 22.3022C20.1983 22.1719 20.125 21.995 20.125 21.8088C20.125 21.6227 20.1983 21.4458 20.3265 21.3155L31.9876 9.46637C32.2532 9.19643 32.6929 9.19643 32.9586 9.46637L44.6197 21.3155C44.8853 21.5854 44.8853 22.0322 44.6197 22.3022L32.9586 34.1513C32.8303 34.2816 32.6563 34.3561 32.4731 34.3561ZM21.783 21.8088L32.4731 32.6713L43.1632 21.8088L32.4731 10.9463L21.783 21.8088Z" fill="#2B5185"/>
<path d="M33.7647 8.6471L19.5113 23.1304C19.154 23.4934 18.5769 23.4934 18.2197 23.1304L15.6273 20.4962C15.2701 20.1332 15.2701 19.5468 15.6273 19.1838L29.8807 4.70048C30.238 4.33747 30.8151 4.33747 31.1724 4.70048L33.7647 7.33466C34.122 7.69768 34.122 8.28408 33.7647 8.6471Z" fill="#A3D4FF"/>
<path d="M29.8807 9.9596L17.5693 22.4603L15.6273 20.487C15.2701 20.124 15.2701 19.5376 15.6273 19.1746L27.9388 6.66455L29.8807 8.63786C30.238 9.00087 30.238 9.58728 29.8807 9.95029V9.9596Z" fill="white"/>
<path d="M18.8702 24.0891C18.4397 24.0891 18.0366 23.9216 17.7343 23.6144L15.142 20.9803C14.8397 20.6731 14.6748 20.2635 14.6748 19.8261C14.6748 19.3886 14.8397 18.979 15.142 18.6719L29.3954 4.18853C30 3.5742 31.0534 3.5742 31.6672 4.18853L34.2595 6.82271C34.5618 7.12988 34.7267 7.53943 34.7267 7.97691C34.7267 8.41439 34.5618 8.82394 34.2595 9.13111L20.0061 23.6144C19.7038 23.9216 19.3008 24.0891 18.8702 24.0891ZM30.5313 5.11934C30.4763 5.11934 30.4122 5.13795 30.3664 5.18449L16.113 19.6678C16.0214 19.7609 16.0214 19.9098 16.113 19.9936L18.7053 22.6278C18.7969 22.7209 18.9435 22.7209 19.0259 22.6278L33.2794 8.14445C33.3343 8.08861 33.3435 8.01414 33.3435 7.97691C33.3435 7.93968 33.3435 7.87452 33.2794 7.80936L30.687 5.17519C30.687 5.17519 30.5863 5.11003 30.5221 5.11003L30.5313 5.11934Z" fill="#2B5185"/>
<path d="M24.6975 25.7531L19.5156 31.0186L23.402 34.9676L28.5839 29.7022L24.6975 25.7531Z" fill="#A3D4FF"/>
<path d="M19.5195 31.0142L22.7582 27.7233L24.7014 29.6978C25.0576 30.0598 25.0576 30.6522 24.7014 31.0142L22.1105 33.6469L19.5195 31.0142Z" fill="white"/>
<path d="M23.4046 35.6684C23.2306 35.6684 23.0565 35.6033 22.9191 35.4636L19.0352 31.517C18.7695 31.2471 18.7695 30.8003 19.0352 30.5304L24.2199 25.262C24.4856 24.9921 24.9253 24.9921 25.1909 25.262L29.0749 29.2086C29.3405 29.4786 29.3405 29.9254 29.0749 30.1953L23.8901 35.4636C23.7527 35.6033 23.5787 35.6684 23.4046 35.6684ZM20.4917 31.0237L23.4046 33.9837L27.6184 29.702L24.7054 26.742L20.4917 31.0237Z" fill="#2B5185"/>
<path d="M17.579 30.3628L4.62634 43.5244C4.26909 43.8874 4.26909 44.4738 4.62634 44.8369L9.81107 50.1052C10.1683 50.4682 10.7454 50.4682 11.1027 50.1052L24.0553 36.9436C24.4126 36.5806 24.4126 35.9942 24.0553 35.6312L18.8706 30.3628C18.5134 29.9998 17.9363 29.9998 17.579 30.3628Z" fill="#A3D4FF"/>
<path d="M15.6273 32.3362L4.61657 43.5245C4.25932 43.8875 4.25932 44.4739 4.61657 44.8369L7.85932 48.1319L18.87 36.9437C19.2273 36.5807 19.2273 35.9942 18.87 35.6312L15.6273 32.3362Z" fill="white"/>
<path d="M10.4518 51.0825C10.0213 51.0825 9.61826 50.9149 9.31597 50.6078L4.13124 45.3394C3.82895 45.0323 3.66406 44.6227 3.66406 44.1852C3.66406 43.7477 3.82895 43.3382 4.13124 43.031L17.0839 29.8694C17.6885 29.2551 18.7419 29.2551 19.3465 29.8694L24.5312 35.1378C24.8335 35.445 24.9984 35.8545 24.9984 36.292C24.9984 36.7295 24.8335 37.139 24.5312 37.4462L11.5786 50.6078C11.2763 50.9149 10.8732 51.0825 10.4427 51.0825H10.4518ZM18.0641 30.8561L5.11139 44.0177C5.05643 44.0735 5.04727 44.148 5.04727 44.1852C5.04727 44.2225 5.04727 44.2876 5.11139 44.3528L10.2961 49.6211C10.3511 49.677 10.4244 49.6863 10.461 49.6863C10.461 49.6863 10.5618 49.6863 10.6259 49.6211L23.5786 36.4595C23.6702 36.3665 23.6702 36.2175 23.5786 36.1338L18.3938 30.8654C18.3022 30.7723 18.1557 30.7723 18.0732 30.8654L18.0641 30.8561Z" fill="#2B5185"/>
<path d="M41.3408 8.84274H40.0767C39.7011 8.84274 39.3896 8.52627 39.3896 8.14464C39.3896 7.76301 39.7011 7.44653 40.0767 7.44653H41.3408C41.7164 7.44653 42.0278 7.76301 42.0278 8.14464C42.0278 8.52627 41.7164 8.84274 41.3408 8.84274Z" fill="#2B5185"/>
<path d="M45.5722 8.84274H44.3081C43.9325 8.84274 43.6211 8.52627 43.6211 8.14464C43.6211 7.76301 43.9325 7.44653 44.3081 7.44653H45.5722C45.9478 7.44653 46.2593 7.76301 46.2593 8.14464C46.2593 8.52627 45.9478 8.84274 45.5722 8.84274Z" fill="#2B5185"/>
<path d="M42.8247 11.6351C42.4491 11.6351 42.1377 11.3186 42.1377 10.937V9.65245C42.1377 9.27082 42.4491 8.95435 42.8247 8.95435C43.2003 8.95435 43.5117 9.27082 43.5117 9.65245V10.937C43.5117 11.3186 43.2003 11.6351 42.8247 11.6351Z" fill="#2B5185"/>
<path d="M42.8247 7.33477C42.4491 7.33477 42.1377 7.0183 42.1377 6.63667V5.35216C42.1377 4.97053 42.4491 4.65405 42.8247 4.65405C43.2003 4.65405 43.5117 4.97053 43.5117 5.35216V6.63667C43.5117 7.0183 43.2003 7.33477 42.8247 7.33477Z" fill="#2B5185"/>
<path d="M10.1953 14.4275H8.93116C8.55559 14.4275 8.24414 14.111 8.24414 13.7294C8.24414 13.3477 8.55559 13.0312 8.93116 13.0312H10.1953C10.5709 13.0312 10.8823 13.3477 10.8823 13.7294C10.8823 14.111 10.5709 14.4275 10.1953 14.4275Z" fill="#2B5185"/>
<path d="M14.4277 14.4275H13.1636C12.788 14.4275 12.4766 14.111 12.4766 13.7294C12.4766 13.3477 12.788 13.0312 13.1636 13.0312H14.4277C14.8033 13.0312 15.1147 13.3477 15.1147 13.7294C15.1147 14.111 14.8033 14.4275 14.4277 14.4275Z" fill="#2B5185"/>
<path d="M11.6792 17.2198C11.3036 17.2198 10.9922 16.9033 10.9922 16.5217V15.2372C10.9922 14.8555 11.3036 14.5391 11.6792 14.5391C12.0548 14.5391 12.3662 14.8555 12.3662 15.2372V16.5217C12.3662 16.9033 12.0548 17.2198 11.6792 17.2198Z" fill="#2B5185"/>
<path d="M11.6792 12.9195C11.3036 12.9195 10.9922 12.603 10.9922 12.2214V10.9369C10.9922 10.5552 11.3036 10.2388 11.6792 10.2388C12.0548 10.2388 12.3662 10.5552 12.3662 10.9369V12.2214C12.3662 12.603 12.0548 12.9195 11.6792 12.9195Z" fill="#2B5185"/>
<path d="M6.53122 30.2512H5.2671C4.89153 30.2512 4.58008 29.9347 4.58008 29.5531C4.58008 29.1715 4.89153 28.855 5.2671 28.855H6.53122C6.9068 28.855 7.21825 29.1715 7.21825 29.5531C7.21825 29.9347 6.9068 30.2512 6.53122 30.2512Z" fill="#2B5185"/>
<path d="M10.7636 30.2512H9.49952C9.12395 30.2512 8.8125 29.9347 8.8125 29.5531C8.8125 29.1715 9.12395 28.855 9.49952 28.855H10.7636C11.1392 28.855 11.4507 29.1715 11.4507 29.5531C11.4507 29.9347 11.1392 30.2512 10.7636 30.2512Z" fill="#2B5185"/>
<path d="M8.01515 33.0435C7.63958 33.0435 7.32812 32.727 7.32812 32.3454V31.0609C7.32812 30.6793 7.63958 30.3628 8.01515 30.3628C8.39072 30.3628 8.70217 30.6793 8.70217 31.0609V32.3454C8.70217 32.727 8.39072 33.0435 8.01515 33.0435Z" fill="#2B5185"/>
<path d="M8.01515 28.7525C7.63958 28.7525 7.32812 28.436 7.32812 28.0544V26.7699C7.32812 26.3883 7.63958 26.0718 8.01515 26.0718C8.39072 26.0718 8.70217 26.3883 8.70217 26.7699V28.0544C8.70217 28.436 8.39072 28.7525 8.01515 28.7525Z" fill="#2B5185"/>
<path d="M50.501 33.0437H49.2368C48.8613 33.0437 48.5498 32.7272 48.5498 32.3456C48.5498 31.9639 48.8613 31.6475 49.2368 31.6475H50.501C50.8765 31.6475 51.188 31.9639 51.188 32.3456C51.188 32.7272 50.8765 33.0437 50.501 33.0437Z" fill="#2B5185"/>
<path d="M54.7324 33.0437H53.4683C53.0927 33.0437 52.7812 32.7272 52.7812 32.3456C52.7812 31.9639 53.0927 31.6475 53.4683 31.6475H54.7324C55.108 31.6475 55.4194 31.9639 55.4194 32.3456C55.4194 32.7272 55.108 33.0437 54.7324 33.0437Z" fill="#2B5185"/>
<path d="M51.9849 35.836C51.6093 35.836 51.2979 35.5195 51.2979 35.1379V33.8534C51.2979 33.4717 51.6093 33.1553 51.9849 33.1553C52.3604 33.1553 52.6719 33.4717 52.6719 33.8534V35.1379C52.6719 35.5195 52.3604 35.836 51.9849 35.836Z" fill="#2B5185"/>
<path d="M51.9849 31.545C51.6093 31.545 51.2979 31.2285 51.2979 30.8469V29.5624C51.2979 29.1807 51.6093 28.8643 51.9849 28.8643C52.3604 28.8643 52.6719 29.1807 52.6719 29.5624V30.8469C52.6719 31.2285 52.3604 31.545 51.9849 31.545Z" fill="#2B5185"/>
<path d="M45.0049 43.2824H43.7407C43.3652 43.2824 43.0537 42.966 43.0537 42.5843C43.0537 42.2027 43.3652 41.8862 43.7407 41.8862H45.0049C45.3804 41.8862 45.6919 42.2027 45.6919 42.5843C45.6919 42.966 45.3804 43.2824 45.0049 43.2824Z" fill="#2B5185"/>
<path d="M49.2363 43.2824H47.9722C47.5966 43.2824 47.2852 42.966 47.2852 42.5843C47.2852 42.2027 47.5966 41.8862 47.9722 41.8862H49.2363C49.6119 41.8862 49.9233 42.2027 49.9233 42.5843C49.9233 42.966 49.6119 43.2824 49.2363 43.2824Z" fill="#2B5185"/>
<path d="M46.4888 46.0748C46.1132 46.0748 45.8018 45.7583 45.8018 45.3767V44.0921C45.8018 43.7105 46.1132 43.394 46.4888 43.394C46.8644 43.394 47.1758 43.7105 47.1758 44.0921V45.3767C47.1758 45.7583 46.8644 46.0748 46.4888 46.0748Z" fill="#2B5185"/>
<path d="M46.4888 41.7837C46.1132 41.7837 45.8018 41.4673 45.8018 41.0856V39.8011C45.8018 39.4195 46.1132 39.103 46.4888 39.103C46.8644 39.103 47.1758 39.4195 47.1758 39.8011V41.0856C47.1758 41.4673 46.8644 41.7837 46.4888 41.7837Z" fill="#2B5185"/>
</g>
<defs>
<clipPath id="clip0_2522_892">
<rect width="60" height="60.9677" fill="white"/>
</clipPath>
</defs>
</svg>
