<svg width="256" height="202" viewBox="0 0 256 202" fill="none" xmlns="http://www.w3.org/2000/svg">
<path d="M36.8452 188.278C16.237 179.418 4.6125 158.292 8.58465 136.903C11.9545 118.756 25.998 103.748 44.5346 98.3189L48.0495 79.3914C48.2546 78.2872 49.3687 77.5271 50.5292 77.6996L90.3205 83.6143C91.4809 83.7868 92.2605 84.8284 92.0554 85.9325L88.5406 104.86C104.124 115.361 111.984 133.624 108.614 151.771C104.552 173.646 85.4685 190.321 62.2063 192.313C62.0238 192.329 61.8504 192.322 61.6805 192.297" stroke="white" stroke-width="2" stroke-miterlimit="10"/>
<path d="M84.0768 111.51C96.9898 120.264 103.5 135.488 100.712 150.614C97.3494 168.854 81.5452 182.755 62.2731 184.419C62.122 184.434 61.9751 184.427 61.8356 184.406" stroke="white" stroke-width="1.67" stroke-miterlimit="10"/>
<path d="M40.1239 180.672C23.0582 173.289 13.4332 155.685 16.7188 137.852C19.5055 122.727 31.1276 110.215 46.4806 105.686" stroke="white" stroke-width="1.67" stroke-miterlimit="10"/>
<path d="M53.3147 173.02C45.778 171.9 38.5729 176.821 37.2421 183.983C35.9113 191.145 40.9545 197.886 48.4863 199.005C56.0182 200.124 63.233 195.204 64.5638 188.042C65.8946 180.88 60.8465 174.139 53.3147 173.02Z" fill="#41B1D4"/>
<path d="M64.3617 111.668C67.9011 112.194 71.2773 109.892 71.9027 106.526C72.5281 103.16 70.1658 100.006 66.6264 99.4799C63.087 98.9541 59.7108 101.256 59.0854 104.622C58.4601 107.988 60.8223 111.142 64.3617 111.668Z" fill="#41B1D4"/>
<path d="M69.0201 91.6809C69.1196 91.1301 68.7416 90.6141 68.1758 90.5285C67.61 90.4429 67.0707 90.8201 66.9712 91.371L64.4611 105.266C64.3616 105.817 64.7396 106.333 65.3054 106.418C65.8712 106.504 66.4106 106.127 66.5101 105.576L69.0201 91.6809Z" fill="#41B1D4"/>
<path d="M192.024 193.078C169.292 191.079 150.297 174.79 145.839 153.462C142.057 135.368 149.494 116.947 164.814 106.15L160.869 87.2776C160.639 86.1767 161.394 85.12 162.549 84.9257L202.158 78.2652C203.313 78.0709 204.444 78.8107 204.674 79.9116L208.618 98.7841C227.263 103.869 241.629 118.624 245.411 136.718C249.97 158.53 238.441 180.066 217.371 189.083C217.206 189.154 217.04 189.201 216.871 189.229" stroke="white" stroke-width="2" stroke-miterlimit="10"/>
<path d="M206.857 106.178C222.298 110.42 234.189 122.719 237.317 137.797C241.09 155.978 231.54 173.921 214.088 181.434C213.952 181.495 213.811 181.533 213.673 181.556" stroke="white" stroke-width="1.67" stroke-miterlimit="10"/>
<path d="M191.887 185.192C173.072 183.522 157.358 169.947 153.672 152.172C150.546 137.096 156.702 121.748 169.388 112.75" stroke="white" stroke-width="1.67" stroke-miterlimit="10"/>
<path d="M200.609 173.803C193.106 175.064 188.228 181.902 189.721 189.044C191.215 196.186 198.53 200.975 206.028 199.715C213.526 198.454 218.414 191.615 216.92 184.473C215.427 177.331 208.107 172.543 200.609 173.803Z" fill="#41B1D4"/>
<path d="M189.142 112.536C192.666 111.944 194.953 108.744 194.251 105.388C193.549 102.032 190.124 99.7913 186.601 100.383C183.077 100.976 180.79 104.176 181.492 107.532C182.194 110.888 185.619 113.128 189.142 112.536Z" fill="#41B1D4"/>
<path d="M186.085 92.2862C185.974 91.7372 185.427 91.3703 184.863 91.4666C184.3 91.563 183.934 92.0861 184.046 92.6351L186.863 106.482C186.975 107.031 187.522 107.398 188.085 107.302C188.648 107.205 189.014 106.682 188.902 106.133L186.085 92.2862Z" fill="#41B1D4"/>
<path d="M183.82 72.0337V81.2602" stroke="white" stroke-width="1.93" stroke-miterlimit="10"/>
<path d="M183.82 42.4937V50.6872" stroke="white" stroke-width="1.93" stroke-miterlimit="10"/>
<path d="M169.359 15.2749C172.567 16.787 175.407 18.8993 177.698 21.449" stroke="white" stroke-width="1.93" stroke-miterlimit="10"/>
<path d="M139.246 12.6733H147.715" stroke="white" stroke-width="1.93" stroke-miterlimit="10"/>
<path d="M107.465 12.6733H116.242" stroke="white" stroke-width="1.93" stroke-miterlimit="10"/>
<path d="M76.4258 22.3935C78.782 19.1412 81.1233 17.5267 84.8294 15.6377" stroke="white" stroke-width="1.93" stroke-miterlimit="10"/>
<path d="M71.1064 50.6872V42.4937" stroke="white" stroke-width="1.93" stroke-miterlimit="10"/>
<path d="M71.1064 81.2602V72.0337" stroke="white" stroke-width="1.93" stroke-miterlimit="10"/>
<path d="M71.0758 72.0338C77.387 72.0338 82.5032 67.2552 82.5032 61.3604C82.5032 55.4657 77.387 50.687 71.0758 50.687C64.7646 50.687 59.6484 55.4657 59.6484 61.3604C59.6484 67.2552 64.7646 72.0338 71.0758 72.0338Z" stroke="white" stroke-width="2.32" stroke-miterlimit="10"/>
<path d="M71.0758 42.498C77.387 42.498 82.5032 37.7193 82.5032 31.8244C82.5032 25.9296 77.387 21.1509 71.0758 21.1509C64.7646 21.1509 59.6484 25.9296 59.6484 31.8244C59.6484 37.7193 64.7646 42.498 71.0758 42.498Z" stroke="white" stroke-width="2.32" stroke-miterlimit="10"/>
<path d="M183.357 72.0338C189.668 72.0338 194.784 67.2552 194.784 61.3604C194.784 55.4657 189.668 50.687 183.357 50.687C177.046 50.687 171.93 55.4657 171.93 61.3604C171.93 67.2552 177.046 72.0338 183.357 72.0338Z" stroke="white" stroke-width="2.32" stroke-miterlimit="10"/>
<path d="M183.357 42.498C189.668 42.498 194.784 37.7193 194.784 31.8244C194.784 25.9296 189.668 21.1509 183.357 21.1509C177.046 21.1509 171.93 25.9296 171.93 31.8244C171.93 37.7193 177.046 42.498 183.357 42.498Z" stroke="white" stroke-width="2.32" stroke-miterlimit="10"/>
<path d="M96.0368 23.3474C102.348 23.3474 107.464 18.5686 107.464 12.6737C107.464 6.77877 102.348 2 96.0368 2C89.7256 2 84.6094 6.77877 84.6094 12.6737C84.6094 18.5686 89.7256 23.3474 96.0368 23.3474Z" stroke="white" stroke-width="2.32" stroke-miterlimit="10"/>
<path d="M127.82 23.3474C134.131 23.3474 139.247 18.5686 139.247 12.6737C139.247 6.77877 134.131 2 127.82 2C121.509 2 116.393 6.77877 116.393 12.6737C116.393 18.5686 121.509 23.3474 127.82 23.3474Z" stroke="white" stroke-width="2.32" stroke-miterlimit="10"/>
<path d="M159.142 23.3474C165.453 23.3474 170.57 18.5686 170.57 12.6737C170.57 6.77877 165.453 2 159.142 2C152.831 2 147.715 6.77877 147.715 12.6737C147.715 18.5686 152.831 23.3474 159.142 23.3474Z" stroke="white" stroke-width="2.32" stroke-miterlimit="10"/>
</svg>
