<svg width="60" height="60" viewBox="0 0 60 60" fill="none" xmlns="http://www.w3.org/2000/svg">
<path d="M30.9155 53.8167C14.7293 53.8167 1.60255 40.69 1.60255 24.5037C1.60255 23.7984 1.63919 23.1022 1.685 22.406C1.03461 24.8243 0.686523 27.3709 0.686523 29.9999C0.686523 46.1861 13.8132 59.3129 29.9995 59.3129C46.1857 59.3129 58.1491 47.3037 59.23 32.0976C55.8865 44.6014 44.4819 53.8167 30.9155 53.8167Z" fill="#A3D4FF"/>
<path d="M30.9155 53.8168C44.4819 53.8168 55.8865 44.6015 59.23 32.0977C59.2758 31.4015 59.3124 30.7053 59.3124 30C59.3124 13.8137 46.1857 0.687012 29.9995 0.687012C16.4331 0.687012 5.02849 9.90228 1.68498 22.4061C1.63918 23.1023 1.60254 23.7985 1.60254 24.5038C1.60254 40.69 14.7293 53.8168 30.9155 53.8168Z" fill="white"/>
<path d="M30 60C13.4565 60 0 46.5435 0 30C0 13.4565 13.4565 0 30 0C46.5435 0 60 13.4565 60 30C60 46.5435 46.5435 60 30 60ZM30 1.37405C14.2168 1.37405 1.37405 14.2168 1.37405 30C1.37405 45.7832 14.2168 58.6259 30 58.6259C45.7832 58.6259 58.6259 45.7832 58.6259 30C58.6259 14.2168 45.7832 1.37405 30 1.37405Z" fill="#2B5185"/>
<path d="M42.4763 13.2092L12.4946 30.5222C11.1847 31.2733 10.7359 32.9497 11.4962 34.2596C12.2473 35.5695 13.9145 36.0092 15.2244 35.2672L12.9343 36.5863C11.6244 37.3375 11.1755 39.0138 11.9358 40.3237C12.687 41.6245 14.3633 42.0733 15.6733 41.3222C14.3633 42.0733 13.9145 43.7497 14.6748 45.0596C15.4259 46.3604 17.1023 46.8092 18.4122 46.0581L20.0885 45.0871C18.7786 45.8474 18.3389 47.5146 19.09 48.8245C19.8412 50.1344 21.5175 50.5833 22.8274 49.823L53.4229 32.1619L42.4855 13.2275L42.4763 13.2092Z" fill="#A3D4FF"/>
<path d="M42.4767 13.2092L15.4722 28.8092C14.1622 29.5695 13.7134 31.2367 14.4737 32.5466C15.2248 33.8565 16.892 34.2962 18.2019 33.5543L15.9119 34.8733C14.6019 35.6245 14.1531 37.3008 14.9134 38.6107C15.6645 39.9115 17.3409 40.3604 18.6508 39.6092C17.3409 40.3604 16.892 42.0367 17.6523 43.3466C18.4035 44.6474 20.0798 45.0962 21.3897 44.3451L22.9836 43.4291C21.6737 44.1802 21.3073 45.8107 22.0676 47.1115C22.8187 48.4214 24.4676 48.8794 25.7683 48.1283L53.4233 32.1619L42.4859 13.2275L42.4767 13.2092Z" fill="white"/>
<path d="M21.4538 50.8581C20.2721 50.8581 19.1179 50.2444 18.4858 49.1451C18.0828 48.4489 17.9545 47.6703 18.0644 46.9283C17.4507 47.1207 16.7912 47.139 16.1499 46.9741C15.2705 46.736 14.5286 46.168 14.0705 45.3802C13.6125 44.5925 13.4935 43.6673 13.7316 42.7787C13.7774 42.623 13.8232 42.4673 13.8873 42.3207C12.8614 42.1925 11.8996 41.6062 11.3408 40.6444C10.8828 39.8474 10.7637 38.9314 11.0018 38.0428C11.2309 37.1909 11.7713 36.4673 12.5133 36.0093C11.8538 35.7253 11.2858 35.2398 10.9011 34.5802C10.4431 33.7925 10.324 32.8673 10.5622 31.9879C10.8003 31.1085 11.3683 30.3665 12.156 29.9085L42.1377 12.6138C42.2934 12.5222 42.4858 12.4948 42.6599 12.5406C42.8339 12.5864 42.9896 12.7054 43.0812 12.8612L54.0095 31.7955C54.1011 31.9512 54.1285 32.1436 54.0827 32.3176C54.0369 32.4917 53.9179 32.6474 53.7621 32.739L23.1667 50.4001C22.6263 50.7115 22.04 50.8581 21.4629 50.8581H21.4538ZM20.4186 45.6642C19.4476 46.2321 19.1087 47.478 19.6675 48.4581C20.2354 49.4383 21.4904 49.768 22.4614 49.2092L52.4614 31.8871L42.211 14.1436L12.8431 31.1177C12.3667 31.3925 12.0278 31.8322 11.8904 32.3635C11.753 32.8947 11.8171 33.4444 12.0919 33.9115C12.6507 34.8917 13.9057 35.2215 14.8858 34.6627C15.2156 34.4703 15.637 34.5894 15.8202 34.9192C16.0125 35.2489 15.8934 35.6703 15.5637 35.8535L13.2736 37.1726C12.7973 37.4474 12.4583 37.8871 12.3209 38.4184C12.1835 38.9497 12.2568 39.4993 12.5225 39.9757C13.0904 40.9558 14.3454 41.2856 15.3164 40.7268C15.6461 40.5344 16.0675 40.6535 16.2507 40.9833C16.3148 41.0932 16.3423 41.2123 16.3423 41.3222C16.3423 41.5604 16.2232 41.7894 15.9942 41.9176C15.5179 42.1925 15.1789 42.6321 15.0415 43.1634C14.9041 43.6947 14.9683 44.2444 15.2431 44.7207C15.5179 45.197 15.9576 45.5268 16.4797 45.6734C17.011 45.8108 17.5606 45.7467 18.037 45.4718L19.7133 44.5009C20.0431 44.3085 20.4644 44.4184 20.6476 44.7482C20.84 45.0779 20.7209 45.4993 20.4003 45.6825L20.4186 45.6642Z" fill="#2B5185"/>
<path d="M18.4029 46.7268C18.1647 46.7268 17.9357 46.6077 17.8075 46.3787C17.6151 46.0489 17.7342 45.6276 18.0548 45.4444L22.9739 42.6047C23.3037 42.4123 23.725 42.5222 23.9083 42.852C24.1006 43.1818 23.9815 43.6031 23.6609 43.7955L18.7418 46.6352C18.6319 46.6993 18.5128 46.7268 18.4029 46.7268Z" fill="#2B5185"/>
<path d="M15.6731 42C15.4349 42 15.2059 41.8809 15.0777 41.6519C14.8853 41.3221 15.0044 40.9007 15.3342 40.7175L17.5235 39.4534C17.8532 39.261 18.2746 39.3801 18.4578 39.7099C18.6502 40.0397 18.5311 40.461 18.2013 40.6442L16.012 41.9084C15.9021 41.9725 15.783 42 15.6731 42Z" fill="#2B5185"/>
<path d="M47.6516 31.997L17.5142 14.6016L6.58594 33.5359L36.1096 50.5832C37.4195 51.3344 39.0867 50.8855 39.847 49.5848C40.5981 48.2748 40.1493 46.6077 38.8485 45.8474L41.1386 47.1664C42.4485 47.9176 44.1157 47.4779 44.876 46.168C45.6271 44.858 45.1783 43.1909 43.8775 42.4306C45.1875 43.1909 46.8546 42.742 47.6149 41.4321C48.3661 40.1222 47.9172 38.455 46.6165 37.6947L44.9401 36.7237C46.25 37.4748 47.9172 37.026 48.6775 35.7252C49.4287 34.4153 48.9798 32.7481 47.6791 31.9878L47.6516 31.997Z" fill="#A3D4FF"/>
<path d="M44.5279 30.1924L17.5142 14.6016L6.58594 33.5359L32.9401 48.7512C34.25 49.5023 35.9355 48.9985 36.6959 47.6886C37.447 46.3787 36.9798 44.7664 35.6791 44.0153L37.905 45.2977C39.2149 46.0489 40.9737 45.5817 41.7249 44.2718C42.476 42.9619 41.9539 41.3222 40.6531 40.571C41.963 41.3313 43.7035 40.8458 44.4638 39.5451C45.2149 38.2351 44.7386 36.6229 43.4378 35.8626L41.7707 34.9008C43.0806 35.6611 44.7661 35.1481 45.5172 33.8382C46.2684 32.5283 45.847 30.9435 44.5371 30.1924H44.5279Z" fill="white"/>
<path d="M37.4747 51.6365C36.8976 51.6365 36.3114 51.4899 35.7709 51.1785L6.24726 34.1312C5.91749 33.9388 5.80756 33.5174 5.99993 33.1968L16.9282 14.2625C17.1205 13.9327 17.5419 13.8228 17.8625 14.006L47.9999 31.4014C49.6304 32.3449 50.1984 34.4426 49.2549 36.0731C48.861 36.751 48.2656 37.264 47.5511 37.548C48.7053 38.6106 49.0167 40.3693 48.2014 41.78C47.7434 42.5678 47.0106 43.1357 46.1221 43.3739C45.9663 43.4197 45.8106 43.4472 45.6457 43.4655C46.0488 44.4182 46.0213 45.5449 45.4625 46.5159C44.5373 48.1189 42.4946 48.696 40.8732 47.8167C40.9648 48.5495 40.8091 49.2823 40.4427 49.9327C39.8106 51.0319 38.6564 51.6457 37.4747 51.6457V51.6365ZM7.5297 33.2884L36.4579 49.9876C37.4381 50.5556 38.6839 50.2167 39.2518 49.2365C39.5266 48.7602 39.5999 48.2105 39.4534 47.6792C39.3159 47.1479 38.977 46.7083 38.5007 46.4426C38.1709 46.2502 38.061 45.8289 38.2533 45.4991C38.4457 45.1693 38.8671 45.0594 39.1877 45.2518C39.2152 45.2701 39.2518 45.2884 39.2793 45.3067L41.4778 46.5709C42.4579 47.1388 43.7129 46.7999 44.2717 45.8197C44.8305 44.8396 44.5007 43.5938 43.5205 43.0258C43.3007 42.8976 43.1724 42.6686 43.1724 42.4304C43.1724 42.3113 43.1999 42.1922 43.264 42.0823C43.4564 41.7525 43.8778 41.6426 44.1984 41.835C44.6747 42.1098 45.2243 42.1831 45.7465 42.0365C46.2778 41.8991 46.7175 41.5602 46.9923 41.0838C47.5511 40.1037 47.2213 38.8487 46.2411 38.2899L44.5648 37.3189C44.4091 37.2273 44.29 37.0716 44.2442 36.8976C44.1984 36.7235 44.2259 36.5312 44.3175 36.3754C44.5098 36.0548 44.9312 35.9449 45.2518 36.1281C45.7282 36.4029 46.2778 36.4762 46.8091 36.3296C47.3404 36.1922 47.7801 35.8533 48.0549 35.377C48.6228 34.3968 48.2839 33.151 47.3037 32.5831L17.7709 15.5358L7.5297 33.2793V33.2884Z" fill="#2B5185"/>
<path d="M43.8688 43.1268C43.7497 43.1268 43.6306 43.0993 43.5299 43.0352L31.0627 35.8352C30.7329 35.6428 30.623 35.2214 30.8154 34.9008C31.0077 34.571 31.4291 34.4611 31.7497 34.6535L44.2169 41.8535C44.5467 42.0459 44.6566 42.4672 44.4642 42.7878C44.336 43.0077 44.107 43.1359 43.8688 43.1359V43.1268Z" fill="#2B5185"/>
<path d="M38.8397 46.5343C38.7206 46.5343 38.6015 46.5068 38.5008 46.4427L28.3237 40.571C28.1038 40.4427 27.9756 40.2137 27.9756 39.9756C27.9756 39.8565 28.0031 39.7374 28.0672 39.6275C28.2596 39.2977 28.6809 39.1878 29.0015 39.371L39.1786 45.2427C39.3985 45.371 39.5267 45.6 39.5267 45.8381C39.5267 45.9572 39.4992 46.0763 39.4351 46.1862C39.3069 46.4061 39.0779 46.5343 38.8397 46.5343Z" fill="#2B5185"/>
<path d="M44.9226 37.4198C44.8035 37.4198 44.6844 37.3923 44.5836 37.3282L33.8019 31.1084C33.4722 30.916 33.3623 30.4946 33.5546 30.174C33.747 29.8442 34.1684 29.7343 34.489 29.9267L45.2706 36.1465C45.6004 36.3389 45.7103 36.7603 45.518 37.09C45.3897 37.3099 45.1607 37.4381 44.9226 37.4381V37.4198Z" fill="#2B5185"/>
<path d="M42.485 13.2092C42.485 13.2092 40.3323 14.1893 38.6377 13.6946L34.2224 12.513C32.6743 12.1008 31.0163 12.3114 29.624 13.1176L23.2942 16.7725C21.856 17.5969 21.1049 19.3282 21.6453 20.8946C22.3782 23.0015 24.769 23.8259 26.6011 22.7633L30.2285 20.6748C32.143 19.5664 34.4514 18.8611 37.282 20.2717L43.7583 15.4168L42.485 13.2183V13.2092Z" fill="white"/>
<path d="M24.8886 23.9083C24.4031 23.9083 23.9176 23.8259 23.4505 23.6519C22.2963 23.2213 21.3986 22.2961 20.9955 21.1236C20.3543 19.2824 21.1787 17.203 22.9467 16.1771L29.2764 12.5221C30.8337 11.6244 32.6566 11.3862 34.3879 11.8534L38.8031 13.0351C40.0123 13.3923 41.6612 12.8335 42.1924 12.5954C42.5131 12.4488 42.8978 12.5679 43.0718 12.8793L44.3451 15.0778C44.5375 15.4076 44.4184 15.829 44.0978 16.0213C43.7772 16.2137 43.3466 16.0946 43.1634 15.7648L42.1833 14.0702C41.3589 14.3542 39.8016 14.7572 38.4367 14.3633L34.0306 13.1816C32.6474 12.8061 31.2001 12.9984 29.9543 13.7129L23.6245 17.3679C22.4428 18.0458 21.8657 19.4656 22.278 20.6748C22.5528 21.4809 23.139 22.0763 23.9176 22.3694C24.6871 22.6534 25.5299 22.5801 26.2444 22.1771L29.8718 20.0793C31.5757 19.0992 34.223 17.9816 37.5757 19.658C37.9146 19.8229 38.052 20.2351 37.8871 20.5832C37.7131 20.9221 37.3008 21.0595 36.9619 20.8946C34.2321 19.5297 32.107 20.3816 30.5589 21.2702L26.9314 23.3679C26.2993 23.7343 25.5848 23.9175 24.8795 23.9175L24.8886 23.9083Z" fill="#2B5185"/>
<path d="M18.3384 13.1907L10.14 8.45483C4.32316 13.8136 0.686523 21.4808 0.686523 29.9999C0.686523 30.696 0.723165 31.3831 0.768966 32.0609L5.77049 34.9464L18.3384 13.1907Z" fill="white"/>
<path d="M3.26973 29.4503L0.759806 28.003C0.714004 28.6625 0.686523 29.3221 0.686523 29.9999C0.686523 30.6778 0.723165 31.3831 0.768966 32.061L5.77049 34.9465L18.3384 13.1908L15.6636 11.6519L5.77049 28.7816C5.26667 29.661 4.13996 29.9541 3.26973 29.4503Z" fill="#A3D4FF"/>
<path d="M5.77099 35.6337C5.65191 35.6337 5.53282 35.597 5.4229 35.5421L0.421374 32.6566C0.219847 32.5467 0.091603 32.336 0.0824427 32.107C0.0274809 31.31 0 30.6322 0 30.0001C0 21.6551 3.52672 13.6123 9.66412 7.95126C9.88397 7.74973 10.2137 7.71309 10.4702 7.85966L18.6687 12.5955C18.9985 12.7879 19.1084 13.2093 18.916 13.539L6.36641 35.2948C6.27481 35.4505 6.12824 35.5696 5.9542 35.6154C5.89923 35.6337 5.83511 35.6429 5.78015 35.6429L5.77099 35.6337ZM1.42901 31.649L5.52366 34.0123L17.3954 13.4383L10.2321 9.29782C4.59847 14.6932 1.37405 22.2047 1.37405 30.0001C1.37405 30.5039 1.39237 31.0352 1.42901 31.649Z" fill="#2B5185"/>
<path d="M12.8886 13.3648C12.4489 13.1083 11.8901 13.2641 11.6336 13.7038C11.3771 14.1435 11.5329 14.7022 11.9726 14.9587C12.4123 15.2152 12.971 15.0595 13.2275 14.6198C13.484 14.1801 13.3283 13.6213 12.8886 13.3648Z" fill="#2B5185"/>
<path d="M54.2287 33.5542L59.2943 30.6229C59.2943 30.4122 59.3127 30.2015 59.3127 29.9908C59.3127 21.0137 55.273 12.9801 48.9157 7.60303L41.6699 11.7893L54.2379 33.5542H54.2287Z" fill="white"/>
<path d="M44.3359 10.2596L41.6611 11.7986L54.2291 33.5635L59.2947 30.6322V30.6138C59.3314 29.2764 59.2672 27.9665 59.1207 26.6749L56.7298 28.0581C55.8504 28.5619 54.7329 28.2596 54.2291 27.3894L44.3359 10.2505V10.2596Z" fill="#A3D4FF"/>
<path d="M54.2291 34.2413C53.9909 34.2413 53.7619 34.1222 53.6337 33.8932L41.0657 12.1283C40.9741 11.9726 40.9467 11.7802 40.9925 11.6062C41.0383 11.4321 41.1573 11.2764 41.3131 11.1848L48.5589 6.99854C48.8062 6.85197 49.1268 6.87945 49.3467 7.07182C56.107 12.7878 59.9909 21.142 59.9909 29.9817C59.9909 30.1191 59.9909 30.2565 59.9818 30.3939V30.623C59.9726 30.8611 59.8352 31.081 59.6337 31.2001L54.568 34.1222C54.4581 34.1863 54.339 34.2138 54.2291 34.2138V34.2413ZM42.6047 12.0459L54.4856 32.6199L58.626 30.2291C58.626 30.1558 58.626 30.0733 58.626 30.0001C58.626 21.7283 55.0627 13.8962 48.8337 8.45502L42.6047 12.055V12.0459Z" fill="#2B5185"/>
<path d="M56.6844 26.0427C56.4279 25.603 55.8691 25.4565 55.4294 25.7038C54.9897 25.9603 54.8432 26.519 55.0905 26.9587C55.347 27.3984 55.9058 27.545 56.3455 27.2977C56.7852 27.0412 56.9317 26.4824 56.6844 26.0427Z" fill="#2B5185"/>
<path d="M5.26663 7.09918C6.27845 7.09918 7.09869 6.27894 7.09869 5.26712C7.09869 4.2553 6.27845 3.43506 5.26663 3.43506C4.25481 3.43506 3.43457 4.2553 3.43457 5.26712C3.43457 6.27894 4.25481 7.09918 5.26663 7.09918Z" fill="white"/>
<path d="M5.26713 7.78621C3.87476 7.78621 2.74805 6.6595 2.74805 5.26713C2.74805 3.87476 3.87476 2.74805 5.26713 2.74805C6.6595 2.74805 7.78621 3.87476 7.78621 5.26713C7.78621 6.6595 6.6595 7.78621 5.26713 7.78621ZM5.26713 4.12209C4.63507 4.12209 4.12209 4.63507 4.12209 5.26713C4.12209 5.89919 4.63507 6.41217 5.26713 6.41217C5.89919 6.41217 6.41217 5.89919 6.41217 5.26713C6.41217 4.63507 5.89919 4.12209 5.26713 4.12209Z" fill="#2B5185"/>
<path d="M51.9844 4.35113C52.9962 4.35113 53.8165 3.53089 53.8165 2.51907C53.8165 1.50725 52.9962 0.687012 51.9844 0.687012C50.9726 0.687012 50.1523 1.50725 50.1523 2.51907C50.1523 3.53089 50.9726 4.35113 51.9844 4.35113Z" fill="white"/>
<path d="M51.9849 5.03817C50.5925 5.03817 49.4658 3.91145 49.4658 2.51908C49.4658 1.12672 50.5925 0 51.9849 0C53.3773 0 54.504 1.12672 54.504 2.51908C54.504 3.91145 53.3773 5.03817 51.9849 5.03817ZM51.9849 1.37405C51.3528 1.37405 50.8399 1.88702 50.8399 2.51908C50.8399 3.15114 51.3528 3.66412 51.9849 3.66412C52.617 3.66412 53.1299 3.15114 53.1299 2.51908C53.1299 1.88702 52.617 1.37405 51.9849 1.37405Z" fill="#2B5185"/>
<path d="M57.4805 10.7632C58.4923 10.7632 59.3126 9.943 59.3126 8.93118C59.3126 7.91936 58.4923 7.09912 57.4805 7.09912C56.4687 7.09912 55.6484 7.91936 55.6484 8.93118C55.6484 9.943 56.4687 10.7632 57.4805 10.7632Z" fill="white"/>
<path d="M57.481 11.4503C56.0886 11.4503 54.9619 10.3236 54.9619 8.93119C54.9619 7.53883 56.0886 6.41211 57.481 6.41211C58.8734 6.41211 60.0001 7.53883 60.0001 8.93119C60.0001 10.3236 58.8734 11.4503 57.481 11.4503ZM57.481 7.78615C56.8489 7.78615 56.336 8.29913 56.336 8.93119C56.336 9.56325 56.8489 10.0762 57.481 10.0762C58.1131 10.0762 58.626 9.56325 58.626 8.93119C58.626 8.29913 58.1131 7.78615 57.481 7.78615Z" fill="#2B5185"/>
<path d="M2.51858 53.8167C3.5304 53.8167 4.35064 52.9965 4.35064 51.9846C4.35064 50.9728 3.5304 50.1526 2.51858 50.1526C1.50676 50.1526 0.686523 50.9728 0.686523 51.9846C0.686523 52.9965 1.50676 53.8167 2.51858 53.8167Z" fill="white"/>
<path d="M2.51908 54.5037C1.12672 54.5037 0 53.377 0 51.9847C0 50.5923 1.12672 49.4656 2.51908 49.4656C3.91145 49.4656 5.03817 50.5923 5.03817 51.9847C5.03817 53.377 3.91145 54.5037 2.51908 54.5037ZM2.51908 50.8396C1.88702 50.8396 1.37405 51.3526 1.37405 51.9847C1.37405 52.6167 1.88702 53.1297 2.51908 53.1297C3.15114 53.1297 3.66412 52.6167 3.66412 51.9847C3.66412 51.3526 3.15114 50.8396 2.51908 50.8396Z" fill="#2B5185"/>
<path d="M9.84769 59.313C10.8595 59.313 11.6797 58.4928 11.6797 57.481C11.6797 56.4692 10.8595 55.6489 9.84769 55.6489C8.83587 55.6489 8.01562 56.4692 8.01562 57.481C8.01562 58.4928 8.83587 59.313 9.84769 59.313Z" fill="white"/>
<path d="M9.84721 60.0001C8.45484 60.0001 7.32812 58.8734 7.32812 57.481C7.32812 56.0886 8.45484 54.9619 9.84721 54.9619C11.2396 54.9619 12.3663 56.0886 12.3663 57.481C12.3663 58.8734 11.2396 60.0001 9.84721 60.0001ZM9.84721 56.336C9.21515 56.336 8.70217 56.8489 8.70217 57.481C8.70217 58.1131 9.21515 58.626 9.84721 58.626C10.4793 58.626 10.9922 58.1131 10.9922 57.481C10.9922 56.8489 10.4793 56.336 9.84721 56.336Z" fill="#2B5185"/>
<path d="M56.5645 54.7327C57.5763 54.7327 58.3965 53.9125 58.3965 52.9007C58.3965 51.8888 57.5763 51.0686 56.5645 51.0686C55.5527 51.0686 54.7324 51.8888 54.7324 52.9007C54.7324 53.9125 55.5527 54.7327 56.5645 54.7327Z" fill="white"/>
<path d="M56.565 55.4198C55.1726 55.4198 54.0459 54.293 54.0459 52.9007C54.0459 51.5083 55.1726 50.3816 56.565 50.3816C57.9573 50.3816 59.0841 51.5083 59.0841 52.9007C59.0841 54.293 57.9573 55.4198 56.565 55.4198ZM56.565 51.7556C55.9329 51.7556 55.4199 52.2686 55.4199 52.9007C55.4199 53.5327 55.9329 54.0457 56.565 54.0457C57.197 54.0457 57.71 53.5327 57.71 52.9007C57.71 52.2686 57.197 51.7556 56.565 51.7556Z" fill="#2B5185"/>
</svg>
