<svg width="60" height="60" viewBox="0 0 60 60" fill="none" xmlns="http://www.w3.org/2000/svg">
<path d="M30 57.2431C29.6244 57.2431 29.3129 56.9317 29.3129 56.5562C29.3129 56.1807 29.6244 55.8693 30 55.8693C44.2717 55.8693 55.8778 44.2649 55.8778 29.9953C55.8778 15.7257 44.2717 4.1214 30 4.1214C15.7282 4.1214 4.12209 15.7349 4.12209 29.9953C4.12209 30.3708 3.81064 30.6822 3.43507 30.6822C3.0595 30.6822 2.74805 30.3708 2.74805 29.9953C2.74805 14.9747 14.9771 2.74756 30 2.74756C45.0228 2.74756 57.2519 14.9747 57.2519 29.9953C57.2519 45.0159 45.0228 57.2431 30 57.2431Z" fill="#2B5185"/>
<path d="M32.7482 59.3132H27.252C25.2276 59.3132 23.5879 57.6738 23.5879 55.6496C23.5879 53.6255 25.2276 51.9861 27.252 51.9861H32.7482C34.7726 51.9861 36.4123 53.6255 36.4123 55.6496C36.4123 57.6738 34.7726 59.3132 32.7482 59.3132Z" fill="white"/>
<path d="M32.7482 59.3132H27.252C25.2276 59.3132 23.5879 57.6738 23.5879 55.6496C23.5879 53.6255 25.2276 51.9861 27.252 51.9861H32.7482C34.7726 51.9861 36.4123 53.6255 36.4123 55.6496C36.4123 57.6738 34.7726 59.3132 32.7482 59.3132Z" fill="#A3D4FF"/>
<path d="M28.168 59.3132H27.252C25.2276 59.3132 23.5879 57.6738 23.5879 55.6496C23.5879 53.6255 25.2276 51.9861 27.252 51.9861H28.168C30.1925 51.9861 31.8322 53.6255 31.8322 55.6496C31.8322 57.6738 30.1925 59.3132 28.168 59.3132Z" fill="white"/>
<path d="M32.7477 60H27.2515C24.8515 60 22.9004 58.0492 22.9004 55.6496C22.9004 53.2499 24.8515 51.2991 27.2515 51.2991H32.7477C35.1477 51.2991 37.0989 53.2499 37.0989 55.6496C37.0989 58.0492 35.1477 60 32.7477 60ZM27.2515 52.6729C25.6118 52.6729 24.2744 54.0101 24.2744 55.6496C24.2744 57.289 25.6118 58.6262 27.2515 58.6262H32.7477C34.3874 58.6262 35.7248 57.289 35.7248 55.6496C35.7248 54.0101 34.3874 52.6729 32.7477 52.6729H27.2515Z" fill="#2B5185"/>
<path d="M8.01574 40.0703C3.96689 40.0703 0.6875 36.7914 0.6875 32.7431V27.2478C0.6875 23.1995 3.96689 19.9207 8.01574 19.9207C9.02338 19.9207 9.8478 20.745 9.8478 21.7524V38.2385C9.8478 39.2551 9.02338 40.0703 8.01574 40.0703Z" fill="white"/>
<path d="M8.01503 19.9207C6.88831 19.9207 5.82572 20.1863 4.87305 20.6351C5.11121 20.9465 5.26694 21.3311 5.26694 21.7524V38.2385C5.26694 38.6598 5.12038 39.0445 4.87305 39.3559C5.82572 39.8047 6.88831 40.0703 8.01503 40.0703C9.02266 40.0703 9.84709 39.2551 9.84709 38.2385V21.7524C9.84709 20.745 9.02266 19.9207 8.01503 19.9207Z" fill="#A3D4FF"/>
<path d="M8.01527 40.7573C3.6 40.7573 0 37.167 0 32.7433V27.2479C0 22.8333 3.6 19.2339 8.01527 19.2339C9.40763 19.2339 10.5343 20.3604 10.5343 21.7526V38.2386C10.5343 39.6308 9.40763 40.7573 8.01527 40.7573ZM8.01527 20.6077C4.35114 20.6077 1.37405 23.5844 1.37405 27.2479V32.7433C1.37405 36.4069 4.35114 39.3835 8.01527 39.3835C8.64733 39.3835 9.1603 38.8706 9.1603 38.2386V21.7526C9.1603 21.1206 8.64733 20.6077 8.01527 20.6077Z" fill="#2B5185"/>
<path d="M5.2671 35.2618C4.89153 35.2618 4.58008 34.9504 4.58008 34.5748V25.4159C4.58008 25.0404 4.89153 24.729 5.2671 24.729C5.64267 24.729 5.95412 25.0404 5.95412 25.4159V34.5748C5.95412 34.9504 5.64267 35.2618 5.2671 35.2618Z" fill="#2B5185"/>
<path d="M51.9844 40.0703C50.9768 40.0703 50.1523 39.2551 50.1523 38.2385V21.7524C50.1523 20.745 50.9768 19.9207 51.9844 19.9207C56.0333 19.9207 59.3126 23.1995 59.3126 27.2478V32.7431C59.3126 36.7914 56.0333 40.0703 51.9844 40.0703Z" fill="white"/>
<path d="M51.985 19.9207C51.6186 19.9207 51.2797 20.0306 50.9957 20.2137C53.1667 20.9465 54.7331 22.998 54.7331 25.416V32.7431C54.7331 35.6648 53.0202 38.1835 50.5469 39.3559C50.8858 39.7863 51.3988 40.0703 51.985 40.0703C56.0339 40.0703 59.3133 36.7914 59.3133 32.7431V27.2478C59.3133 23.1995 56.0339 19.9207 51.985 19.9207Z" fill="#A3D4FF"/>
<path d="M51.9849 40.7573C50.5925 40.7573 49.4658 39.6308 49.4658 38.2386V21.7526C49.4658 20.3604 50.5925 19.2339 51.9849 19.2339C56.4002 19.2339 60.0002 22.8333 60.0002 27.2479V32.7433C60.0002 37.167 56.4002 40.7573 51.9849 40.7573ZM51.9849 20.6077C51.3528 20.6077 50.8399 21.1206 50.8399 21.7526V38.2386C50.8399 38.8706 51.3528 39.3835 51.9849 39.3835C55.649 39.3835 58.6261 36.4069 58.6261 32.7433V27.2479C58.6261 23.5844 55.649 20.6077 51.9849 20.6077Z" fill="#2B5185"/>
<path d="M54.7329 35.2618C54.3573 35.2618 54.0459 34.9504 54.0459 34.5748V25.4159C54.0459 25.0404 54.3573 24.729 54.7329 24.729C55.1085 24.729 55.4199 25.0404 55.4199 25.4159V34.5748C55.4199 34.9504 55.1085 35.2618 54.7329 35.2618Z" fill="#2B5185"/>
<path d="M29.9997 0.686768C22.6715 0.686768 15.9661 3.37949 10.8272 7.82156C9.95699 8.58175 9.92034 9.92811 10.7356 10.7433L11.7982 11.8057C12.5402 12.5476 13.7219 12.5842 14.5188 11.8973C18.6776 8.33446 24.0913 6.18212 29.9997 6.18212C35.9081 6.18212 41.3127 8.33446 45.4715 11.8973C46.2684 12.5842 47.4501 12.5476 48.1921 11.8057L49.2547 10.7433C50.07 9.92811 50.0425 8.58175 49.1631 7.82156C44.0333 3.37949 37.328 0.686768 29.9997 0.686768Z" fill="white"/>
<path d="M49.173 7.82156C44.0341 3.37949 37.3288 0.686768 30.0005 0.686768C23.5792 0.686768 17.6341 2.75668 12.8066 6.25539C16.9929 4.13052 21.7196 2.92154 26.7303 2.92154C35.1211 2.92154 42.7242 6.28286 48.2753 11.7233L49.2646 10.7341C50.0799 9.91895 50.0524 8.57259 49.173 7.8124V7.82156Z" fill="#A3D4FF"/>
<path d="M46.7904 13.0789C46.1675 13.0789 45.5446 12.8591 45.0225 12.4195C40.8454 8.83835 35.5049 6.86919 29.9904 6.86919C24.4759 6.86919 19.1446 8.83835 14.9583 12.4195C13.8774 13.3445 12.3019 13.2896 11.3034 12.2913L10.2408 11.2288C9.70949 10.6976 9.42552 9.9649 9.453 9.22303C9.48048 8.48115 9.81025 7.78508 10.369 7.30881C15.8286 2.59197 22.7904 0 29.9996 0C37.2087 0 44.1705 2.59197 49.6209 7.29965C50.1797 7.77592 50.5095 8.48115 50.537 9.21387C50.5644 9.9649 50.2713 10.6976 49.7492 11.2197L48.6866 12.2821C48.1644 12.8042 47.4866 13.0698 46.7996 13.0698L46.7904 13.0789ZM29.9996 5.49535C35.8347 5.49535 41.4957 7.58358 45.9202 11.3754C46.4515 11.8333 47.2209 11.8058 47.7064 11.3204L48.769 10.258C49.0255 10.0015 49.1721 9.63518 49.1538 9.26882C49.1446 8.90246 48.9797 8.57274 48.7141 8.34377C43.5202 3.84674 36.8698 1.37384 29.9996 1.37384C23.1293 1.37384 16.4789 3.84674 11.2759 8.34377C11.0011 8.5819 10.8454 8.91162 10.8362 9.26882C10.827 9.63518 10.9644 9.99238 11.2209 10.258L12.2835 11.3204C12.769 11.8058 13.5385 11.8333 14.0698 11.3754C18.5034 7.58358 24.1553 5.49535 29.9904 5.49535H29.9996Z" fill="#2B5185"/>
<path d="M30.0003 14.4253C21.3987 14.4253 14.4277 21.3952 14.4277 29.9954C14.4277 32.5416 15.0506 34.9321 16.1316 37.057L14.4277 45.5656L22.9377 43.862C25.0537 44.9428 27.4537 45.5656 30.0003 45.5656C38.6018 45.5656 45.5728 38.5957 45.5728 29.9954C45.5728 21.3952 38.6018 14.4253 30.0003 14.4253Z" fill="white"/>
<path d="M40.9743 18.9497C41.927 21.6607 42.1926 24.6832 41.3865 27.8705C39.8659 33.9337 34.7636 38.5956 28.5804 39.4932C25.4018 39.9603 22.3972 39.4382 19.7682 38.2201C19.4109 38.0552 19.017 38.0002 18.6323 38.0735L15.8109 38.6414L14.4277 45.5655L22.9377 43.862C25.7865 45.3182 29.1209 45.941 32.6567 45.3365C39.3712 44.2008 44.6567 38.6414 45.4537 31.8821C46.0491 26.8172 44.217 22.1736 40.9651 18.9497H40.9743Z" fill="#A3D4FF"/>
<path d="M14.4272 46.2524C14.244 46.2524 14.07 46.1792 13.9417 46.0509C13.7769 45.8861 13.7127 45.6571 13.7585 45.4281L15.4166 37.1485C14.3082 34.8954 13.7494 32.4866 13.7494 29.9954C13.7494 21.0288 21.041 13.7383 30.0089 13.7383C38.9769 13.7383 46.2685 21.0288 46.2685 29.9954C46.2685 38.9619 38.9769 46.2524 30.0089 46.2524C27.5082 46.2524 25.1082 45.6937 22.8547 44.5855L14.5738 46.2433C14.5738 46.2433 14.4822 46.2616 14.4364 46.2616L14.4272 46.2524ZM22.9372 43.175C23.0471 43.175 23.1478 43.2025 23.2486 43.2483C25.3646 44.3291 27.6364 44.8786 29.9906 44.8786C38.1982 44.8786 44.8761 38.2017 44.8761 29.9954C44.8761 21.789 38.1982 15.1121 29.9906 15.1121C21.783 15.1121 15.1051 21.789 15.1051 29.9954C15.1051 32.3492 15.6547 34.6206 16.7356 36.7363C16.8089 36.8737 16.8272 37.0294 16.7998 37.1851L15.2975 44.6863L22.7998 43.1842C22.7998 43.1842 22.8914 43.175 22.9372 43.175Z" fill="#2B5185"/>
<path d="M28.424 37.0937H20.4087C20.0331 37.0937 19.7217 36.7822 19.7217 36.4067V35.6007C19.7217 33.0088 21.8285 30.9114 24.4118 30.9114C26.2438 30.9114 27.7278 29.4185 27.7278 27.5959C27.7278 26.7349 27.3797 25.9015 26.7385 25.2695C26.0973 24.6284 25.2728 24.2803 24.4118 24.2803C22.5797 24.2803 21.0957 25.7641 21.0957 27.5959C21.0957 27.9714 20.7843 28.2828 20.4087 28.2828C20.0331 28.2828 19.7217 27.9714 19.7217 27.5959C19.7217 25.0039 21.8285 22.9065 24.4118 22.9065C25.6392 22.9065 26.8118 23.4011 27.7095 24.2986C28.6072 25.1962 29.1018 26.3686 29.1018 27.605C29.1018 30.197 26.995 32.2944 24.4118 32.2944C22.5797 32.2944 21.0957 33.7873 21.0957 35.6099V35.729H28.424C28.7995 35.729 29.111 36.0404 29.111 36.4159C29.111 36.7914 28.7995 37.1028 28.424 37.1028V37.0937Z" fill="#2B5185"/>
<path d="M38.8394 37.0935C38.4638 37.0935 38.1523 36.7821 38.1523 36.4066V25.1869C38.1523 24.8114 38.4638 24.5 38.8394 24.5C39.2149 24.5 39.5264 24.8114 39.5264 25.1869V36.4066C39.5264 36.7821 39.2149 37.0935 38.8394 37.0935Z" fill="#2B5185"/>
<path d="M40.4425 32.2853H32.4273C32.0517 32.2853 31.7402 31.9739 31.7402 31.5984V23.5844C31.7402 23.2089 32.0517 22.8975 32.4273 22.8975C32.8028 22.8975 33.1143 23.2089 33.1143 23.5844V30.9115H40.4425C40.8181 30.9115 41.1295 31.2229 41.1295 31.5984C41.1295 31.9739 40.8181 32.2853 40.4425 32.2853Z" fill="#2B5185"/>
<path d="M57.4805 14.4253C58.4923 14.4253 59.3126 13.6052 59.3126 12.5935C59.3126 11.5818 58.4923 10.7617 57.4805 10.7617C56.4687 10.7617 55.6484 11.5818 55.6484 12.5935C55.6484 13.6052 56.4687 14.4253 57.4805 14.4253Z" fill="white"/>
<path d="M57.481 15.1121C56.0886 15.1121 54.9619 13.9856 54.9619 12.5934C54.9619 11.2013 56.0886 10.0747 57.481 10.0747C58.8734 10.0747 60.0001 11.2013 60.0001 12.5934C60.0001 13.9856 58.8734 15.1121 57.481 15.1121ZM57.481 11.4485C56.8489 11.4485 56.336 11.9614 56.336 12.5934C56.336 13.2254 56.8489 13.7383 57.481 13.7383C58.1131 13.7383 58.626 13.2254 58.626 12.5934C58.626 11.9614 58.1131 11.4485 57.481 11.4485Z" fill="#2B5185"/>
<path d="M48.3203 59.3132C49.3322 59.3132 50.1524 58.4931 50.1524 57.4814C50.1524 56.4698 49.3322 55.6497 48.3203 55.6497C47.3085 55.6497 46.4883 56.4698 46.4883 57.4814C46.4883 58.4931 47.3085 59.3132 48.3203 59.3132Z" fill="white"/>
<path d="M48.3208 60.0001C46.9285 60.0001 45.8018 58.8735 45.8018 57.4813C45.8018 56.0892 46.9285 54.9626 48.3208 54.9626C49.7132 54.9626 50.8399 56.0892 50.8399 57.4813C50.8399 58.8735 49.7132 60.0001 48.3208 60.0001ZM48.3208 56.3365C47.6888 56.3365 47.1758 56.8494 47.1758 57.4813C47.1758 58.1133 47.6888 58.6262 48.3208 58.6262C48.9529 58.6262 49.4659 58.1133 49.4659 57.4813C49.4659 56.8494 48.9529 56.3365 48.3208 56.3365Z" fill="#2B5185"/>
<path d="M16.2598 54.7246C17.2716 54.7246 18.0919 53.9045 18.0919 52.8928C18.0919 51.8812 17.2716 51.061 16.2598 51.061C15.248 51.061 14.4277 51.8812 14.4277 52.8928C14.4277 53.9045 15.248 54.7246 16.2598 54.7246Z" fill="white"/>
<path d="M16.2593 55.4114C14.867 55.4114 13.7402 54.2849 13.7402 52.8927C13.7402 51.5006 14.867 50.374 16.2593 50.374C17.6517 50.374 18.7784 51.5006 18.7784 52.8927C18.7784 54.2849 17.6517 55.4114 16.2593 55.4114ZM16.2593 51.7479C15.6273 51.7479 15.1143 52.2608 15.1143 52.8927C15.1143 53.5247 15.6273 54.0376 16.2593 54.0376C16.8914 54.0376 17.4044 53.5247 17.4044 52.8927C17.4044 52.2608 16.8914 51.7479 16.2593 51.7479Z" fill="#2B5185"/>
<path d="M4.35062 8.01391C5.36243 8.01391 6.18268 7.19379 6.18268 6.18212C6.18268 5.17046 5.36243 4.35034 4.35062 4.35034C3.3388 4.35034 2.51855 5.17046 2.51855 6.18212C2.51855 7.19379 3.3388 8.01391 4.35062 8.01391Z" fill="white"/>
<path d="M4.35111 8.70098C2.95875 8.70098 1.83203 7.57443 1.83203 6.18228C1.83203 4.79012 2.95875 3.66357 4.35111 3.66357C5.74348 3.66357 6.8702 4.79012 6.8702 6.18228C6.8702 7.57443 5.74348 8.70098 4.35111 8.70098ZM4.35111 5.03741C3.71905 5.03741 3.20608 5.55031 3.20608 6.18228C3.20608 6.81424 3.71905 7.32714 4.35111 7.32714C4.98318 7.32714 5.49615 6.81424 5.49615 6.18228C5.49615 5.55031 4.98318 5.03741 4.35111 5.03741Z" fill="#2B5185"/>
<path d="M52.9004 4.35033C53.9122 4.35033 54.7325 3.53022 54.7325 2.51855C54.7325 1.50688 53.9122 0.686768 52.9004 0.686768C51.8886 0.686768 51.0684 1.50688 51.0684 2.51855C51.0684 3.53022 51.8886 4.35033 52.9004 4.35033Z" fill="white"/>
<path d="M52.9009 5.0374C51.5086 5.0374 50.3818 3.91086 50.3818 2.5187C50.3818 1.12655 51.5086 0 52.9009 0C54.2933 0 55.42 1.12655 55.42 2.5187C55.42 3.91086 54.2933 5.0374 52.9009 5.0374ZM52.9009 1.37384C52.2689 1.37384 51.7559 1.88674 51.7559 2.5187C51.7559 3.15067 52.2689 3.66357 52.9009 3.66357C53.533 3.66357 54.046 3.15067 54.046 2.5187C54.046 1.88674 53.533 1.37384 52.9009 1.37384Z" fill="#2B5185"/>
</svg>
