<svg width="60" height="60" viewBox="0 0 60 60" fill="none" xmlns="http://www.w3.org/2000/svg">
<path d="M30.0005 59.313C46.1896 59.313 59.3135 46.1891 59.3135 30C59.3135 13.8109 46.1896 0.687012 30.0005 0.687012C13.8114 0.687012 0.6875 13.8109 0.6875 30C0.6875 46.1891 13.8114 59.313 30.0005 59.313Z" fill="white"/>
<path d="M28.6081 10.7725C44.4463 10.7725 57.3348 23.3313 57.8936 39.0321C58.8096 36.1832 59.3135 33.1603 59.3135 30.0091C59.3135 13.8137 46.1867 0.687012 30.0005 0.687012C13.8142 0.687012 0.6875 13.8137 0.6875 30C0.6875 30.3572 0.705821 30.7053 0.714981 31.0534C4.52567 19.2824 15.5638 10.7725 28.6081 10.7725Z" fill="#A3D4FF"/>
<path d="M30 60C13.4565 60 0 46.5435 0 30C0 13.4565 13.4565 0 30 0C46.5435 0 60 13.4565 60 30C60 46.5435 46.5435 60 30 60ZM30 1.37405C14.2168 1.37405 1.37405 14.2168 1.37405 30C1.37405 45.7832 14.2168 58.626 30 58.626C45.7832 58.626 58.626 45.7832 58.626 30C58.626 14.2168 45.7832 1.37405 30 1.37405Z" fill="#2B5185"/>
<path d="M44.6561 31.6945C42.4943 31.6945 40.3233 31.1083 39.1049 29.9266C38.8301 29.661 38.8301 29.2304 39.0866 28.9556C39.3523 28.6808 39.7828 28.6808 40.0576 28.9373C41.9904 30.806 47.3126 30.806 49.2454 28.9373C49.5202 28.6716 49.9507 28.6808 50.2164 28.9556C50.482 29.2304 50.4729 29.661 50.1981 29.9266C48.9798 31.1083 46.8179 31.6945 44.6469 31.6945H44.6561Z" fill="#2B5185"/>
<path d="M44.4639 31.0075C46.5158 31.0442 48.6043 30.5129 49.731 29.4228L53.2028 21.0686C53.2028 21.0686 49.8318 24.5587 44.4639 23.5419V31.0075Z" fill="#A3D4FF"/>
<path d="M44.4639 31.0078C45.7738 31.0078 46.2776 30.962 47.6425 30.5772L49.328 23.2856C49.328 23.2856 46.4608 24.1742 44.4639 23.533V30.9986V31.0078Z" fill="white"/>
<path d="M44.6653 31.6948C44.592 31.6948 44.5187 31.6948 44.4454 31.6948C44.0699 31.6948 43.7676 31.3833 43.7676 31.0077V23.5421C43.7676 23.3406 43.8592 23.139 44.0149 23.0108C44.1706 22.8826 44.3813 22.8276 44.5828 22.8642C49.5019 23.7986 52.5706 20.7207 52.6989 20.5925C52.9279 20.3543 53.2943 20.3177 53.5691 20.5009C53.8439 20.6841 53.9538 21.0322 53.8256 21.3345L50.3538 29.6887C50.3172 29.7711 50.2622 29.8535 50.1981 29.9177C49.0439 31.0352 46.9828 31.6948 44.6561 31.6948H44.6653ZM45.1508 24.339V30.3116C46.8363 30.2383 48.3111 29.7619 49.1538 29.02L51.6363 23.0566C50.1615 23.881 47.9447 24.6688 45.1508 24.339Z" fill="#2B5185"/>
<path d="M43.5117 22.0854C39.4262 24.4488 36.0186 21.0686 36.0186 21.0686L39.5911 29.4228C40.6445 30.4488 42.5407 30.9709 44.4644 31.0075C44.5193 24.6869 47.9178 19.5297 43.5117 22.0854Z" fill="white"/>
<path d="M43.5116 22.0856C42.962 22.4062 42.4307 22.6077 41.9086 22.7451C41.7803 25.7589 41.8811 29.0841 41.9452 30.6505C42.733 30.8703 43.5941 30.9894 44.4643 31.0077C44.5193 24.6871 47.9177 19.5299 43.5116 22.0856Z" fill="#A3D4FF"/>
<path d="M44.4641 31.6947H44.4549C42.1831 31.6581 40.2412 31.0077 39.1144 29.9176C39.0503 29.8535 38.9953 29.7802 38.9587 29.6978L35.3862 21.3436C35.2579 21.0413 35.3587 20.6932 35.6335 20.5008C35.9083 20.3176 36.2656 20.3451 36.5037 20.5833C36.632 20.7024 39.6091 23.5604 43.1724 21.4901C44.1892 20.9039 45.2244 20.4367 45.9389 20.9588C46.7633 21.5634 46.4793 22.8367 46.0121 24.9436C45.6366 26.6382 45.1786 28.7451 45.1602 31.0077C45.1602 31.1909 45.087 31.365 44.9495 31.4932C44.8213 31.6214 44.6473 31.6856 44.4732 31.6856L44.4641 31.6947ZM40.1587 29.0199C40.9373 29.7069 42.2564 30.165 43.7953 30.284C43.8961 28.1405 44.3358 26.1436 44.6656 24.6504C44.8763 23.7069 45.1236 22.5619 45.0778 22.1222C44.9129 22.1588 44.5557 22.2779 43.8503 22.681C41.3587 24.1192 39.0778 23.6245 37.5389 22.9008L40.1587 29.0199Z" fill="#2B5185"/>
<path d="M57.9661 38.803C54.7966 32.629 49.731 29.4229 49.731 29.4229C47.5508 31.5389 41.7707 31.5389 39.5905 29.4229C39.5905 29.4229 28.7081 36.2931 28.873 49.3007C28.8913 50.8854 28.2867 52.3877 27.3066 53.6519C26.7844 54.3297 26.3447 55.2916 26.3447 56.6198C26.3447 57.7099 28.2959 57.6 30.0547 57.2793C31.8867 56.9496 33.7646 57.1236 35.5325 57.7007C36.1463 57.9022 36.8608 58.1038 37.6485 58.2961C47.3035 55.6946 54.989 48.2931 57.9753 38.803H57.9661Z" fill="white"/>
<path d="M49.7311 29.4229C48.8975 30.229 47.551 30.7236 46.0762 30.916C46.0762 30.916 53.7983 34.3877 55.0166 45.2793C56.2441 43.2641 57.2426 41.0931 57.9662 38.803C54.7968 32.629 49.7311 29.4229 49.7311 29.4229Z" fill="#A3D4FF"/>
<path d="M37.6393 58.9923C37.5843 58.9923 37.5294 58.9923 37.4744 58.9739C36.6958 58.7816 35.9721 58.58 35.3126 58.3602C33.6087 57.8014 31.8316 57.664 30.1736 57.9663C27.4439 58.461 26.5645 58.0579 26.1431 57.7007C25.8133 57.4258 25.6484 57.0594 25.6484 56.6289C25.6484 55.3281 26.024 54.1923 26.7568 53.2396C27.7095 52.0121 28.195 50.6564 28.1858 49.319C28.021 36.0823 39.1049 28.919 39.224 28.8457C39.4897 28.6716 39.8378 28.7174 40.0668 28.9281C41.9996 30.7968 47.3217 30.7968 49.2545 28.9281C49.4836 28.7083 49.8316 28.6716 50.0973 28.8457C50.308 28.9831 55.3645 32.2258 58.5797 38.4915C58.6622 38.6472 58.6805 38.8396 58.6255 39.0136C55.5843 48.6869 47.6149 56.3266 37.8225 58.9648C37.7675 58.9831 37.7034 58.9923 37.6484 58.9923H37.6393ZM31.9232 56.4365C33.1874 56.4365 34.479 56.6472 35.7339 57.0503C36.311 57.2426 36.9523 57.4167 37.6301 57.5907C46.7996 55.0625 54.2744 47.9083 57.224 38.8671C54.7049 34.0945 50.995 31.1724 49.7675 30.2839C47.2484 32.1526 42.0637 32.1526 39.5446 30.2839C37.6026 31.6854 29.4225 38.2533 29.5599 49.2915C29.5782 50.9495 28.9919 52.5984 27.8469 54.0732C27.3065 54.7785 27.0225 55.6304 27.0225 56.6197C27.0225 56.6381 27.4439 57.0594 29.9263 56.6106C30.5767 56.4915 31.2454 56.4365 31.9232 56.4365Z" fill="#2B5185"/>
<path d="M22.6722 27.5999C20.0157 27.5999 17.35 26.8763 15.8569 25.4198C15.5821 25.1541 15.5821 24.7236 15.8386 24.4488C16.1042 24.174 16.5348 24.174 16.8096 24.4305C19.2737 26.8213 26.0706 26.8213 28.5348 24.4305C28.8096 24.1648 29.2401 24.174 29.5057 24.4488C29.7714 24.7236 29.7622 25.1541 29.4874 25.4198C27.9943 26.8671 25.3286 27.5999 22.6722 27.5999Z" fill="#2B5185"/>
<path d="M22.4248 26.9132C24.9897 26.959 27.6004 26.2994 29.0111 24.9346L33.3531 14.501C33.3531 14.501 29.1393 18.8613 22.434 17.588V26.9224L22.4248 26.9132Z" fill="#A3D4FF"/>
<path d="M22.4248 26.9129C24.0553 26.9129 24.6966 26.8579 26.4004 26.3724L28.4981 17.2671C28.4981 17.2671 24.9164 18.3755 22.4248 17.5785V26.9129Z" fill="white"/>
<path d="M22.6808 27.5999C22.5892 27.5999 22.5068 27.5999 22.4152 27.5999C22.0396 27.5999 21.7373 27.2884 21.7373 26.9129V17.5785C21.7373 17.377 21.8289 17.1755 21.9846 17.0472C22.1404 16.919 22.351 16.864 22.5526 16.9007C28.8182 18.0915 32.8121 14.0518 32.8579 14.0152C33.0869 13.777 33.4533 13.7403 33.7281 13.9144C34.003 14.0976 34.1129 14.4457 33.9846 14.748L29.6426 25.1816C29.606 25.264 29.551 25.3465 29.4869 25.4106C28.0762 26.7846 25.5388 27.5816 22.6808 27.5816V27.5999ZM23.1114 18.3846V26.2167C25.3465 26.1434 27.3251 25.5205 28.4335 24.5312L31.7404 16.5709C29.8991 17.6884 26.9312 18.8793 23.1114 18.3846Z" fill="#2B5185"/>
<path d="M21.9661 16.1861C16.5982 18.6228 11.8623 14.4915 11.8623 14.4915L16.3325 24.925C17.6516 26.2075 20.0241 26.867 22.4241 26.9037C25.6394 22.7357 27.3432 13.7495 21.9661 16.1861Z" fill="#A3D4FF"/>
<path d="M21.9661 16.1861C16.5982 18.6228 11.8623 14.4915 11.8623 14.4915L16.3325 24.925C17.0837 25.5846 17.7432 25.9144 19.4562 26.5189C19.4562 26.5189 21.5814 22.2319 21.9661 16.1861Z" fill="white"/>
<path d="M22.4243 27.5998H22.4151C19.6579 27.554 17.2121 26.7387 15.8563 25.4288C15.7922 25.3646 15.7373 25.2914 15.7006 25.2089L11.2304 14.7753C11.1022 14.4822 11.2029 14.1433 11.4594 13.9509C11.7159 13.7585 12.0731 13.7769 12.3113 13.9876C12.4945 14.1433 16.7907 17.7982 21.6823 15.5723C23.7617 14.6288 24.8518 15.2608 25.4014 15.957C27.096 18.1005 25.4563 24.1097 22.9647 27.3341C22.8365 27.499 22.635 27.5998 22.4243 27.5998ZM16.9006 24.5311C17.9815 25.5021 19.8869 26.125 22.0854 26.2166C24.2472 23.212 25.4563 18.2379 24.3205 16.8089C23.9632 16.3601 23.267 16.3601 22.2411 16.8181C18.6502 18.4395 15.3709 17.386 13.3831 16.3234L16.8915 24.5311H16.9006Z" fill="#2B5185"/>
<path d="M42.4035 49.7772C42.605 33.5177 29.0111 24.9253 29.0111 24.9253C26.2813 27.5635 19.063 27.5635 16.3332 24.9253C16.3332 24.9253 6.53171 31.1177 3.70117 42.9436C8.48285 52.6352 18.4584 59.3131 30.0004 59.3131C35.2859 59.3131 40.2416 57.9024 44.5195 55.4566C44.4645 55.3833 44.4187 55.2917 44.3638 55.2184C43.1363 53.6337 42.376 51.7558 42.4035 49.7772Z" fill="white"/>
<path d="M42.4028 49.7772C42.6043 33.5177 29.0104 24.9253 29.0104 24.9253C27.9753 25.9329 26.2898 26.5467 24.4395 26.794C24.4395 26.794 38.1799 32.968 35.4685 53.6887C35.2578 55.3192 35.9082 56.8673 37.0074 58.4612C39.673 57.8108 42.1921 56.7848 44.5188 55.4566C44.4639 55.3833 44.4181 55.2917 44.3631 55.2184C43.1356 53.6337 42.3753 51.7558 42.4028 49.7772Z" fill="#A3D4FF"/>
<path d="M29.9999 60C18.4946 60 8.18008 53.5787 3.08695 43.2458C3.01367 43.0993 2.99535 42.9344 3.03199 42.7787C5.89917 30.8245 15.5541 24.6046 15.9663 24.3481C16.232 24.1741 16.5801 24.2107 16.8091 24.4306C19.2732 26.8214 26.0702 26.8214 28.5343 24.4306C28.7633 24.2107 29.1114 24.1741 29.377 24.3481C29.5144 24.4397 43.3007 33.3344 43.09 49.7863C43.0717 51.4993 43.6946 53.2306 44.9037 54.797C44.9496 54.8519 44.9862 54.9161 45.032 54.9894C45.1419 55.1451 45.206 55.3832 45.1602 55.5665C45.1144 55.7588 45.0228 55.9512 44.8488 56.052C40.3328 58.6352 35.1938 60 29.9816 60H29.9999ZM4.42436 42.8611C9.32512 52.5894 19.0992 58.626 29.9999 58.626C34.7175 58.626 39.3709 57.4535 43.5114 55.2275C42.2931 53.4779 41.6885 51.6275 41.716 49.768C41.89 35.6886 31.3099 27.3985 29.0564 25.7955C25.9694 28.1955 19.374 28.2046 16.2778 25.7955C14.4183 27.1145 6.88848 32.9863 4.42436 42.8611Z" fill="#2B5185"/>
<path d="M22.672 51.9847C27.7311 51.9847 31.8323 47.8835 31.8323 42.8244C31.8323 37.7653 27.7311 33.6641 22.672 33.6641C17.6129 33.6641 13.5117 37.7653 13.5117 42.8244C13.5117 47.8835 17.6129 51.9847 22.672 51.9847Z" fill="white"/>
<path d="M23.8898 33.7559C25.7127 35.4322 26.8669 37.8322 26.8669 40.4978C26.8669 45.5543 22.7631 49.6582 17.7066 49.6582C17.2944 49.6582 16.8822 49.6215 16.4883 49.5665C18.1188 51.0597 20.2806 51.9849 22.6715 51.9849C27.728 51.9849 31.8318 47.8811 31.8318 42.8246C31.8318 38.1803 28.3692 34.3513 23.8898 33.7559Z" fill="#A3D4FF"/>
<path d="M22.6715 52.6717C17.2395 52.6717 12.8242 48.2564 12.8242 42.8244C12.8242 37.3923 17.2395 32.9771 22.6715 32.9771C28.1036 32.9771 32.5189 37.3923 32.5189 42.8244C32.5189 48.2564 28.1036 52.6717 22.6715 52.6717ZM22.6715 34.3511C17.9998 34.3511 14.1983 38.1526 14.1983 42.8244C14.1983 47.4961 17.9998 51.2977 22.6715 51.2977C27.3433 51.2977 31.1448 47.4961 31.1448 42.8244C31.1448 38.1526 27.3433 34.3511 22.6715 34.3511Z" fill="#2B5185"/>
<path d="M22.6722 47.826C21.3989 47.826 20.2814 47.1207 19.8234 46.0215C19.6768 45.6734 19.8417 45.2703 20.1898 45.1237C20.5379 44.9772 20.9409 45.1421 21.0875 45.4902C21.3348 46.0673 21.9669 46.452 22.6722 46.452C23.5974 46.452 24.3577 45.7925 24.3577 44.9863C24.3577 44.0154 23.7898 43.5207 22.6631 43.5207C20.4096 43.5207 19.6035 42.055 19.6035 40.681C19.6035 39.1146 20.9776 37.8413 22.6631 37.8413C23.9363 37.8413 25.0539 38.5466 25.5119 39.6459C25.6585 39.994 25.4936 40.397 25.1455 40.5436C24.7974 40.6902 24.3944 40.5253 24.2478 40.1772C24.0005 39.6001 23.3684 39.2154 22.6631 39.2154C21.7379 39.2154 20.9776 39.8749 20.9776 40.681C20.9776 41.652 21.5455 42.1466 22.6631 42.1466C24.9257 42.1466 25.7318 43.6123 25.7318 44.9863C25.7318 46.5528 24.3577 47.826 22.6722 47.826Z" fill="#2B5185"/>
<path d="M22.6626 39.2061C22.287 39.2061 21.9756 38.8947 21.9756 38.5191V37.3374C21.9756 36.9618 22.287 36.6504 22.6626 36.6504C23.0382 36.6504 23.3496 36.9618 23.3496 37.3374V38.5191C23.3496 38.8947 23.0382 39.2061 22.6626 39.2061Z" fill="#2B5185"/>
<path d="M22.6626 49.0079C22.287 49.0079 21.9756 48.6964 21.9756 48.3209V47.1392C21.9756 46.7636 22.287 46.4521 22.6626 46.4521C23.0382 46.4521 23.3496 46.7636 23.3496 47.1392V48.3209C23.3496 48.6964 23.0382 49.0079 22.6626 49.0079Z" fill="#2B5185"/>
<path d="M18.2011 11.6333H16.937C16.5615 11.6333 16.25 11.3219 16.25 10.9463C16.25 10.5707 16.5615 10.2593 16.937 10.2593H18.2011C18.5767 10.2593 18.8882 10.5707 18.8882 10.9463C18.8882 11.3219 18.5767 11.6333 18.2011 11.6333Z" fill="#2B5185"/>
<path d="M22.4248 11.6333H21.1607C20.7851 11.6333 20.4736 11.3219 20.4736 10.9463C20.4736 10.5707 20.7851 10.2593 21.1607 10.2593H22.4248C22.8003 10.2593 23.1118 10.5707 23.1118 10.9463C23.1118 11.3219 22.8003 11.6333 22.4248 11.6333Z" fill="#2B5185"/>
<path d="M19.6763 14.3816C19.3007 14.3816 18.9893 14.0701 18.9893 13.6946V12.4304C18.9893 12.0549 19.3007 11.7434 19.6763 11.7434C20.0519 11.7434 20.3633 12.0549 20.3633 12.4304V13.6946C20.3633 14.0701 20.0519 14.3816 19.6763 14.3816Z" fill="#2B5185"/>
<path d="M19.6763 10.1589C19.3007 10.1589 18.9893 9.84747 18.9893 9.4719V8.20777C18.9893 7.8322 19.3007 7.52075 19.6763 7.52075C20.0519 7.52075 20.3633 7.8322 20.3633 8.20777V9.4719C20.3633 9.84747 20.0519 10.1589 19.6763 10.1589Z" fill="#2B5185"/>
<path d="M43.5849 15.1785H42.3208C41.9452 15.1785 41.6338 14.867 41.6338 14.4915C41.6338 14.1159 41.9452 13.8044 42.3208 13.8044H43.5849C43.9605 13.8044 44.272 14.1159 44.272 14.4915C44.272 14.867 43.9605 15.1785 43.5849 15.1785Z" fill="#2B5185"/>
<path d="M47.8076 15.1785H46.5435C46.1679 15.1785 45.8564 14.867 45.8564 14.4915C45.8564 14.1159 46.1679 13.8044 46.5435 13.8044H47.8076C48.1832 13.8044 48.4946 14.1159 48.4946 14.4915C48.4946 14.867 48.1832 15.1785 47.8076 15.1785Z" fill="#2B5185"/>
<path d="M45.0591 17.9267C44.6835 17.9267 44.3721 17.6153 44.3721 17.2397V15.9756C44.3721 15.6 44.6835 15.2886 45.0591 15.2886C45.4347 15.2886 45.7461 15.6 45.7461 15.9756V17.2397C45.7461 17.6153 45.4347 17.9267 45.0591 17.9267Z" fill="#2B5185"/>
<path d="M45.0591 13.7038C44.6835 13.7038 44.3721 13.3924 44.3721 13.0168V11.7527C44.3721 11.3771 44.6835 11.0657 45.0591 11.0657C45.4347 11.0657 45.7461 11.3771 45.7461 11.7527V13.0168C45.7461 13.3924 45.4347 13.7038 45.0591 13.7038Z" fill="#2B5185"/>
<path d="M30.7509 7.85061H29.4868C29.1113 7.85061 28.7998 7.53916 28.7998 7.16359C28.7998 6.78801 29.1113 6.47656 29.4868 6.47656H30.7509C31.1265 6.47656 31.438 6.78801 31.438 7.16359C31.438 7.53916 31.1265 7.85061 30.7509 7.85061Z" fill="#2B5185"/>
<path d="M34.9834 7.85061H33.7192C33.3437 7.85061 33.0322 7.53916 33.0322 7.16359C33.0322 6.78801 33.3437 6.47656 33.7192 6.47656H34.9834C35.3589 6.47656 35.6704 6.78801 35.6704 7.16359C35.6704 7.53916 35.3589 7.85061 34.9834 7.85061Z" fill="#2B5185"/>
<path d="M32.2349 10.5986C31.8593 10.5986 31.5479 10.2872 31.5479 9.91159V8.64747C31.5479 8.2719 31.8593 7.96045 32.2349 7.96045C32.6104 7.96045 32.9219 8.2719 32.9219 8.64747V9.91159C32.9219 10.2872 32.6104 10.5986 32.2349 10.5986Z" fill="#2B5185"/>
<path d="M32.2349 6.37547C31.8593 6.37547 31.5479 6.06402 31.5479 5.68845V4.42433C31.5479 4.04876 31.8593 3.7373 32.2349 3.7373C32.6104 3.7373 32.9219 4.04876 32.9219 4.42433V5.68845C32.9219 6.06402 32.6104 6.37547 32.2349 6.37547Z" fill="#2B5185"/>
</svg>
