<svg width="61" height="60" viewBox="0 0 61 60" fill="none" xmlns="http://www.w3.org/2000/svg">
<g clip-path="url(#clip0_2522_846)">
<path d="M56.0398 45.6256C55.8106 47.1291 54.793 48.3941 53.3629 48.9442L41.8579 53.3445C39.5478 54.2246 36.9809 52.932 36.3117 50.5576C35.8259 48.8158 36.8068 46.9916 38.5302 46.4415L40.8037 45.7173C47.2025 44.3605 50.9886 41.9587 53.3721 41.9312C55.5722 41.9037 56.4615 43.8105 56.0306 45.6256H56.0398Z" fill="white"/>
<path d="M54.6185 42.188C54.2427 42.7655 53.7385 43.2606 53.1059 43.5998L42.316 49.531C40.29 50.6402 37.7965 49.8885 36.6781 47.9359C36.2197 48.6968 36.0639 49.641 36.3206 50.5669C36.9898 52.9504 39.5566 54.243 41.8668 53.3538L53.3626 48.9535C54.7835 48.4126 55.8103 47.1383 56.0395 45.6349C56.3787 44.2231 55.8928 42.7564 54.6185 42.1972V42.188Z" fill="#A3D4FF"/>
<path d="M40.3636 54.3072C39.6118 54.3072 38.851 54.133 38.1634 53.7847C36.935 53.1704 36.0274 52.0612 35.6516 50.7411C35.0649 48.6326 36.2291 46.4508 38.3193 45.7816L40.5928 45.0574C43.9572 44.3423 46.5515 43.3614 48.6416 42.5639C50.5759 41.8305 52.1069 41.253 53.3628 41.2346H53.4178C54.5087 41.2346 55.4529 41.6563 56.0672 42.4264C56.7547 43.2881 56.9931 44.5257 56.7089 45.7449C56.4339 47.4776 55.2513 48.9443 53.6103 49.5769L42.1054 53.9772C41.5462 54.1972 40.9503 54.298 40.3544 54.298L40.3636 54.3072ZM53.427 42.6189H53.3903C52.3819 42.6281 50.9518 43.1689 49.1367 43.8565C47.0099 44.6632 44.3605 45.6624 40.9503 46.3866L38.741 47.0925C37.3659 47.5326 36.5866 48.9718 36.9808 50.3653C37.2467 51.3278 37.8884 52.107 38.7868 52.5562C39.676 53.0054 40.6936 53.0513 41.6195 52.6937L53.1245 48.2934C54.3162 47.8351 55.1688 46.7717 55.3613 45.5158C55.3613 45.4974 55.3613 45.4791 55.3704 45.4607C55.563 44.6357 55.4254 43.8198 54.9946 43.2881C54.6371 42.8389 54.1054 42.6189 53.427 42.6189Z" fill="#2B5185"/>
<path d="M11.6882 0.6875H50.1909C50.6951 0.6875 51.1076 1.10003 51.1076 1.60423V53.8579H10.7715V1.60423C10.7715 1.10003 11.184 0.6875 11.6882 0.6875Z" fill="#A3D4FF"/>
<path d="M11.6882 3.43774H47.4407C47.9449 3.43774 48.3574 3.85027 48.3574 4.35447V53.8579H10.7715V4.35447C10.7715 3.85027 11.184 3.43774 11.6882 3.43774Z" fill="white"/>
<path d="M51.1077 54.5455H10.7715C10.3957 54.5455 10.084 54.2338 10.084 53.8579V1.60428C10.084 0.71505 10.8082 0 11.6883 0H50.1909C51.071 0 51.7952 0.71505 51.7952 1.60428V53.8579C51.7952 54.2338 51.4835 54.5455 51.1077 54.5455ZM11.4591 53.1704H50.4201V1.60428C50.4201 1.47594 50.3193 1.3751 50.1909 1.3751H11.6883C11.5599 1.3751 11.4591 1.47594 11.4591 1.60428V53.1704Z" fill="#2B5185"/>
<path d="M41.0232 6.18799H20.8551C20.8551 8.71816 18.8017 10.7716 16.2715 10.7716V53.858H45.6069V10.7716C43.0767 10.7716 41.0232 8.71816 41.0232 6.18799Z" fill="white"/>
<path d="M42.8574 9.83643V53.8578H45.6076V10.7715C44.5717 10.7715 43.6275 10.414 42.8574 9.83643Z" fill="#A3D4FF"/>
<path d="M20.856 6.18799C20.856 7.22389 20.4984 8.16813 19.9209 8.93818H41.9683C41.3907 8.16813 41.0332 7.22389 41.0332 6.18799H20.856Z" fill="#A3D4FF"/>
<path d="M45.6069 54.5456H16.2715C15.8957 54.5456 15.584 54.2339 15.584 53.858V10.7717C15.584 10.3958 15.8957 10.0841 16.2715 10.0841C18.4167 10.0841 20.1676 8.33318 20.1676 6.18804C20.1676 5.81218 20.4793 5.50049 20.8552 5.50049H41.0233C41.3991 5.50049 41.7108 5.81218 41.7108 6.18804C41.7108 8.33318 43.4618 10.0841 45.6069 10.0841C45.9828 10.0841 46.2945 10.3958 46.2945 10.7717V53.858C46.2945 54.2339 45.9828 54.5456 45.6069 54.5456ZM16.9591 53.1705H44.9194V11.4134C42.5634 11.1109 40.6841 9.23158 40.3815 6.87558H21.4969C21.1852 9.23158 19.3151 11.1109 16.9591 11.4134V53.1705Z" fill="#2B5185"/>
<path d="M30.9398 39.1903C36.0027 39.1903 40.1071 35.086 40.1071 30.023C40.1071 24.9601 36.0027 20.8557 30.9398 20.8557C25.8768 20.8557 21.7725 24.9601 21.7725 30.023C21.7725 35.086 25.8768 39.1903 30.9398 39.1903Z" fill="white"/>
<path d="M30.9394 39.1902C35.9998 39.1902 40.1067 35.0833 40.1067 30.0229C40.1067 26.9061 38.5483 24.1559 36.174 22.4966C37.2099 23.9817 37.8149 25.7785 37.8149 27.7311C37.8149 32.7915 33.708 36.8984 28.6476 36.8984C26.7041 36.8984 24.8982 36.2842 23.4131 35.2575C25.0724 37.6318 27.8226 39.1902 30.9394 39.1902Z" fill="#A3D4FF"/>
<path d="M30.9398 39.8777C25.5036 39.8777 21.085 35.459 21.085 30.0228C21.085 24.5866 25.5036 20.168 30.9398 20.168C36.376 20.168 40.7947 24.5866 40.7947 30.0228C40.7947 35.459 36.376 39.8777 30.9398 39.8777ZM30.9398 21.5431C26.2645 21.5431 22.4601 25.3475 22.4601 30.0228C22.4601 34.6981 26.2645 38.5026 30.9398 38.5026C35.6151 38.5026 39.4196 34.6981 39.4196 30.0228C39.4196 25.3475 35.6151 21.5431 30.9398 21.5431Z" fill="#2B5185"/>
<path d="M36.6697 30.9397C37.176 30.9397 37.5864 30.5292 37.5864 30.0229C37.5864 29.5166 37.176 29.1062 36.6697 29.1062C36.1634 29.1062 35.7529 29.5166 35.7529 30.0229C35.7529 30.5292 36.1634 30.9397 36.6697 30.9397Z" fill="#2B5185"/>
<path d="M25.2097 30.9397C25.716 30.9397 26.1264 30.5292 26.1264 30.0229C26.1264 29.5166 25.716 29.1062 25.2097 29.1062C24.7034 29.1062 24.293 29.5166 24.293 30.0229C24.293 30.5292 24.7034 30.9397 25.2097 30.9397Z" fill="#2B5185"/>
<path d="M30.9396 35.5599C29.5462 35.5599 28.3177 34.7807 27.8135 33.5798C27.6669 33.2314 27.8319 32.8281 28.1802 32.6814C28.5286 32.5347 28.932 32.6997 29.0786 33.0481C29.3628 33.7265 30.1145 34.1848 30.9396 34.1848C32.0305 34.1848 32.9197 33.4056 32.9197 32.4522C32.9197 31.3155 32.2322 30.7104 30.9304 30.7104C28.4553 30.7104 27.5752 29.1062 27.5752 27.6027C27.5752 25.8884 29.0786 24.4858 30.9304 24.4858C32.3239 24.4858 33.5523 25.2651 34.0565 26.466C34.2032 26.8143 34.0381 27.2177 33.6898 27.3644C33.3414 27.5111 32.9381 27.346 32.7914 26.9977C32.5072 26.3193 31.7555 25.8609 30.9304 25.8609C29.8395 25.8609 28.9503 26.6402 28.9503 27.6027C28.9503 28.7578 29.6195 29.3353 30.9304 29.3353C33.4148 29.3353 34.2948 30.9396 34.2948 32.4522C34.2948 34.1665 32.7914 35.5599 30.9396 35.5599Z" fill="#2B5185"/>
<path d="M30.9307 25.861C30.5549 25.861 30.2432 25.5493 30.2432 25.1734V23.835C30.2432 23.4591 30.5549 23.1475 30.9307 23.1475C31.3066 23.1475 31.6183 23.4591 31.6183 23.835V25.1734C31.6183 25.5493 31.3066 25.861 30.9307 25.861Z" fill="#2B5185"/>
<path d="M30.9307 36.8983C30.5549 36.8983 30.2432 36.5958 30.2432 36.2108V34.8724C30.2432 34.4965 30.5549 34.1848 30.9307 34.1848C31.3066 34.1848 31.6183 34.4965 31.6183 34.8724V36.2108C31.6183 36.5958 31.3066 36.8983 30.9307 36.8983Z" fill="#2B5185"/>
<path d="M40.1069 16.9596H34.6065C34.2306 16.9596 33.9189 16.657 33.9189 16.272C33.9189 15.887 34.2306 15.5845 34.6065 15.5845H40.1069C40.4827 15.5845 40.7944 15.8962 40.7944 16.272C40.7944 16.6479 40.4827 16.9596 40.1069 16.9596Z" fill="#2B5185"/>
<path d="M30.9398 16.9596H21.7725C21.3966 16.9596 21.085 16.657 21.085 16.272C21.085 15.887 21.3966 15.5845 21.7725 15.5845H30.9398C31.3157 15.5845 31.6274 15.8962 31.6274 16.272C31.6274 16.6479 31.3157 16.9596 30.9398 16.9596Z" fill="#2B5185"/>
<path d="M36.4403 12.3758H25.4395C25.0636 12.3758 24.752 12.0733 24.752 11.6883C24.752 11.3033 25.0636 11.0007 25.4395 11.0007H36.4403C36.8161 11.0007 37.1278 11.3124 37.1278 11.6883C37.1278 12.0641 36.8161 12.3758 36.4403 12.3758Z" fill="#2B5185"/>
<path d="M58.5429 45.5615C56.7736 44.0947 51.8691 48.605 39.1174 51.016C40.795 50.3835 41.4 49.4392 41.455 48.5042C41.7392 44.2781 38.0815 44.4706 38.0815 44.4706C19.2793 44.6906 33.5803 40.2261 8.0127 40.1069V56.5897C8.0127 56.5897 36.1655 66.1512 57.4795 49.7509C57.4795 49.7509 60.853 47.4958 58.5337 45.5706L58.5429 45.5615Z" fill="white"/>
<path d="M58.5429 45.5614C58.0203 45.1306 57.2228 45.2222 56.0402 45.6164C55.5177 46.4231 54.7201 47.0007 54.7201 47.0007C37.6873 61.1733 15.3649 57.9098 8.0127 56.3238V56.5805C8.0127 56.5805 36.1655 66.142 57.4795 49.7417C57.4795 49.7417 60.853 47.4866 58.5337 45.5614H58.5429Z" fill="#A3D4FF"/>
<path d="M27.0437 59.9999C16.1713 59.9999 7.95736 57.2864 7.80152 57.2314C7.5265 57.1397 7.33398 56.8739 7.33398 56.5805V40.0977C7.33398 39.9144 7.40732 39.7402 7.53567 39.6118C7.66401 39.4835 7.83819 39.4102 8.02153 39.4102C21.8733 39.4743 24.2385 40.8403 26.3286 42.0412C28.0338 43.0221 29.5189 43.8746 38.072 43.7738C38.1178 43.7738 39.8412 43.6913 41.0422 44.9197C41.8764 45.7631 42.2431 46.9823 42.1331 48.5408C42.1056 48.9075 42.0139 49.32 41.7939 49.7325C46.9917 48.5225 50.6678 47.0099 53.2347 45.9556C56.1865 44.7364 57.8183 44.0671 58.9642 45.0205C59.8901 45.7906 60.046 46.6157 60.0185 47.1657C59.9268 48.8616 58.0658 50.1542 57.8458 50.3009C47.9268 57.9373 36.4677 59.9816 27.007 59.9816L27.0437 59.9999ZM8.70908 56.0763C12.4493 57.2039 37.7786 64.0427 57.0758 49.1917C57.5066 48.8983 58.6342 47.9541 58.6709 47.1015C58.6709 46.9732 58.6984 46.5698 58.1117 46.084C57.5983 45.6531 56.0032 46.3131 53.7847 47.2299C50.7228 48.4858 46.1025 50.3834 39.2545 51.676C38.9062 51.7402 38.5578 51.5293 38.4661 51.1901C38.3653 50.8509 38.5487 50.4843 38.8878 50.3651C40.0888 49.9067 40.7305 49.265 40.7855 48.4491C40.8588 47.3032 40.6296 46.4506 40.0888 45.8914C39.3279 45.1031 38.1453 45.1489 38.127 45.1489C29.1797 45.2497 27.5387 44.3147 25.6594 43.2329C23.7526 42.1328 21.5983 40.8953 8.71825 40.7944V56.0763H8.70908Z" fill="#2B5185"/>
<path d="M32.7183 52.4644C30.399 52.4644 27.7221 52.2627 24.7153 51.8685C24.3394 51.8227 24.0736 51.4743 24.1194 51.0985C24.1652 50.7226 24.5136 50.4476 24.8895 50.5026C32.7275 51.5293 36.8436 50.9885 38.9154 50.3559C39.273 50.2459 39.6671 50.4476 39.7772 50.8143C39.8872 51.181 39.6855 51.5568 39.3188 51.676C37.6045 52.2077 35.3952 52.4736 32.7183 52.4736V52.4644Z" fill="#2B5185"/>
<path d="M8.02134 40.1069H0.6875V56.6081H8.02134V40.1069Z" fill="#A3D4FF"/>
<path d="M0.678711 40.1069H5.27153V52.9412C5.27153 53.4454 4.859 53.8579 4.3548 53.8579H0.678711V40.1069Z" fill="white"/>
<path d="M8.02139 57.2957H0.687548C0.311688 57.2957 0 56.9932 0 56.6081V40.107C0 39.7311 0.311688 39.4194 0.687548 39.4194H8.02139C8.39725 39.4194 8.70894 39.7311 8.70894 40.107V56.6081C8.70894 56.9932 8.39725 57.2957 8.02139 57.2957ZM1.3751 55.9206H7.33384V40.7945H1.3751V55.9206Z" fill="#2B5185"/>
<path d="M4.35423 53.8579C4.86053 53.8579 5.27096 53.4474 5.27096 52.9411C5.27096 52.4348 4.86053 52.0244 4.35423 52.0244C3.84793 52.0244 3.4375 52.4348 3.4375 52.9411C3.4375 53.4474 3.84793 53.8579 4.35423 53.8579Z" fill="#2B5185"/>
<path d="M3.78564 27.9603H2.52056C2.1447 27.9603 1.83301 27.6578 1.83301 27.2728C1.83301 26.8877 2.1447 26.5852 2.52056 26.5852H3.78564C4.1615 26.5852 4.47319 26.8969 4.47319 27.2728C4.47319 27.6486 4.1615 27.9603 3.78564 27.9603Z" fill="#2B5185"/>
<path d="M8.021 27.9603H6.75591C6.38005 27.9603 6.06836 27.6578 6.06836 27.2728C6.06836 26.8877 6.38005 26.5852 6.75591 26.5852H8.021C8.39685 26.5852 8.70854 26.8969 8.70854 27.2728C8.70854 27.6486 8.39685 27.9603 8.021 27.9603Z" fill="#2B5185"/>
<path d="M5.27153 30.7105C4.89567 30.7105 4.58398 30.408 4.58398 30.0229V28.7579C4.58398 28.382 4.89567 28.0703 5.27153 28.0703C5.64739 28.0703 5.95908 28.382 5.95908 28.7579V30.0229C5.95908 30.408 5.64739 30.7105 5.27153 30.7105Z" fill="#2B5185"/>
<path d="M5.27153 26.4843C4.89567 26.4843 4.58398 26.1726 4.58398 25.7968V24.5225C4.58398 24.1466 4.89567 23.835 5.27153 23.835C5.64739 23.835 5.95908 24.1466 5.95908 24.5225V25.7968C5.95908 26.1726 5.64739 26.4843 5.27153 26.4843Z" fill="#2B5185"/>
<path d="M55.1226 19.7098H53.8575C53.4816 19.7098 53.1699 19.3981 53.1699 19.0223C53.1699 18.6464 53.4816 18.3347 53.8575 18.3347H55.1226C55.4984 18.3347 55.8101 18.6464 55.8101 19.0223C55.8101 19.3981 55.4984 19.7098 55.1226 19.7098Z" fill="#2B5185"/>
<path d="M59.3579 19.7098H58.0928C57.717 19.7098 57.4053 19.3981 57.4053 19.0223C57.4053 18.6464 57.717 18.3347 58.0928 18.3347H59.3579C59.7338 18.3347 60.0455 18.6464 60.0455 19.0223C60.0455 19.3981 59.7338 19.7098 59.3579 19.7098Z" fill="#2B5185"/>
<path d="M56.6084 22.46C56.2326 22.46 55.9209 22.1483 55.9209 21.7725V20.5074C55.9209 20.1223 56.2326 19.8198 56.6084 19.8198C56.9843 19.8198 57.296 20.1223 57.296 20.5074V21.7725C57.296 22.1483 56.9843 22.46 56.6084 22.46Z" fill="#2B5185"/>
<path d="M56.6084 18.2247C56.2326 18.2247 55.9209 17.9221 55.9209 17.5371V16.272C55.9209 15.8962 56.2326 15.5845 56.6084 15.5845C56.9843 15.5845 57.296 15.8962 57.296 16.272V17.5371C57.296 17.9221 56.9843 18.2247 56.6084 18.2247Z" fill="#2B5185"/>
<path d="M55.1226 35.294H53.8575C53.4816 35.294 53.1699 34.9915 53.1699 34.6065C53.1699 34.2215 53.4816 33.9189 53.8575 33.9189H55.1226C55.4984 33.9189 55.8101 34.2306 55.8101 34.6065C55.8101 34.9824 55.4984 35.294 55.1226 35.294Z" fill="#2B5185"/>
<path d="M59.3579 35.294H58.0928C57.717 35.294 57.4053 34.9915 57.4053 34.6065C57.4053 34.2215 57.717 33.9189 58.0928 33.9189H59.3579C59.7338 33.9189 60.0455 34.2306 60.0455 34.6065C60.0455 34.9824 59.7338 35.294 59.3579 35.294Z" fill="#2B5185"/>
<path d="M56.6084 38.0442C56.2326 38.0442 55.9209 37.7417 55.9209 37.3567V36.0916C55.9209 35.7157 56.2326 35.4041 56.6084 35.4041C56.9843 35.4041 57.296 35.7157 57.296 36.0916V37.3567C57.296 37.7417 56.9843 38.0442 56.6084 38.0442Z" fill="#2B5185"/>
<path d="M56.6084 33.8182C56.2326 33.8182 55.9209 33.5065 55.9209 33.1306V31.8655C55.9209 31.4897 56.2326 31.178 56.6084 31.178C56.9843 31.178 57.296 31.4897 57.296 31.8655V33.1306C57.296 33.5065 56.9843 33.8182 56.6084 33.8182Z" fill="#2B5185"/>
<path d="M3.78564 10.5423H2.52056C2.1447 10.5423 1.83301 10.2306 1.83301 9.85478C1.83301 9.47892 2.1447 9.16724 2.52056 9.16724H3.78564C4.1615 9.16724 4.47319 9.47892 4.47319 9.85478C4.47319 10.2306 4.1615 10.5423 3.78564 10.5423Z" fill="#2B5185"/>
<path d="M8.021 10.5423H6.75591C6.38005 10.5423 6.06836 10.2306 6.06836 9.85478C6.06836 9.47892 6.38005 9.16724 6.75591 9.16724H8.021C8.39685 9.16724 8.70854 9.47892 8.70854 9.85478C8.70854 10.2306 8.39685 10.5423 8.021 10.5423Z" fill="#2B5185"/>
<path d="M5.27153 13.2925C4.89567 13.2925 4.58398 12.9808 4.58398 12.605V11.3399C4.58398 10.964 4.89567 10.6523 5.27153 10.6523C5.64739 10.6523 5.95908 10.964 5.95908 11.3399V12.605C5.95908 12.9808 5.64739 13.2925 5.27153 13.2925Z" fill="#2B5185"/>
<path d="M5.27153 9.05718C4.89567 9.05718 4.58398 8.74549 4.58398 8.36963V7.10454C4.58398 6.72868 4.89567 6.41699 5.27153 6.41699C5.64739 6.41699 5.95908 6.72868 5.95908 7.10454V8.36963C5.95908 8.74549 5.64739 9.05718 5.27153 9.05718Z" fill="#2B5185"/>
</g>
<defs>
<clipPath id="clip0_2522_846">
<rect width="60.0458" height="60" fill="white"/>
</clipPath>
</defs>
</svg>
